# Made in Blockbench 5.1.4
mtllib abandoned_planks.mtl

o bb_main
v 0.31802860950259026 0.0625 -0.07506472087471323
v 0.14913105759867523 0.0625 -0.25938405507724427
v 0.31802860950259026 0 -0.07506472087471323
v 0.14913105759867523 0 -0.25938405507724427
v 0.056971390497409735 0.0625 -0.17493527912528678
v 0.22586894240132477 0.0625 0.009384055077244269
v 0.056971390497409735 0 -0.17493527912528678
v 0.22586894240132477 0 0.009384055077244269
vt 0.5625 0.875
vt 0.625 0.875
vt 0.625 0.84375
vt 0.5625 0.84375
vt 0.875 1
vt 1 1
vt 1 0.96875
vt 0.875 0.96875
vt 0.4375 0.8125
vt 0.5 0.8125
vt 0.5 0.78125
vt 0.4375 0.78125
vt 0.4375 0.9375
vt 0.5625 0.9375
vt 0.5625 0.90625
vt 0.4375 0.90625
vt 0.1875 0.4375
vt 0.125 0.4375
vt 0.125 0.5625
vt 0.1875 0.5625
vt 0.40625 0.5625
vt 0.34375 0.5625
vt 0.34375 0.4375
vt 0.40625 0.4375
vn -0.6755902076156601 0 -0.7372773368101242
vn 0.7372773368101242 0 -0.6755902076156601
vn 0.6755902076156601 0 0.7372773368101242
vn -0.7372773368101242 0 0.6755902076156601
vn 0 1 0
vn 0 -1 0
usemtl abandoned_planks
f 4/4/1 7/3/1 5/2/1 2/1/1
f 3/8/2 4/7/2 2/6/2 1/5/2
f 8/12/3 3/11/3 1/10/3 6/9/3
f 7/16/4 8/15/4 6/14/4 5/13/4
f 6/20/5 1/19/5 2/18/5 5/17/5
f 7/24/6 4/23/6 3/22/6 8/21/6
o bb_main
v 0.4375 0.0625 1
v 0.4375 0.0625 0.125
v 0.4375 0 1
v 0.4375 0 0.125
v 0.3125 0.0625 0.125
v 0.3125 0.0625 1
v 0.3125 0 0.125
v 0.3125 0 1
vt 0.5625 0.875
vt 0.625 0.875
vt 0.625 0.84375
vt 0.5625 0.84375
vt 0.4375 1
vt 0.875 1
vt 0.875 0.96875
vt 0.4375 0.96875
vt 0.4375 0.8125
vt 0.5 0.8125
vt 0.5 0.78125
vt 0.4375 0.78125
vt 0.5625 0.9375
vt 1 0.9375
vt 1 0.90625
vt 0.5625 0.90625
vt 0.1875 0.5625
vt 0.125 0.5625
vt 0.125 1
vt 0.1875 1
vt 0.40625 1
vt 0.34375 1
vt 0.34375 0.5625
vt 0.40625 0.5625
vn 0 0 -1
vn 1 0 0
vn 0 0 1
vn -1 0 0
vn 0 1 0
vn 0 -1 0
usemtl abandoned_planks
f 12/28/7 15/27/7 13/26/7 10/25/7
f 11/32/8 12/31/8 10/30/8 9/29/8
f 16/36/9 11/35/9 9/34/9 14/33/9
f 15/40/10 16/39/10 14/38/10 13/37/10
f 14/44/11 9/43/11 10/42/11 13/41/11
f 15/48/12 12/47/12 11/46/12 16/45/12
o bb_main
v 0.6875 0.0625 1
v 0.6875 0.0625 -0.125
v 0.6875 0 1
v 0.6875 0 -0.125
v 0.4375 0.0625 -0.125
v 0.4375 0.0625 1
v 0.4375 0 -0.125
v 0.4375 0 1
vt 0.4375 0.875
vt 0.5625 0.875
vt 0.5625 0.84375
vt 0.4375 0.84375
vt 0.4375 1
vt 1 1
vt 1 0.96875
vt 0.4375 0.96875
vt 0.5 0.8125
vt 0.625 0.8125
vt 0.625 0.78125
vt 0.5 0.78125
vt 0.4375 0.9375
vt 1 0.9375
vt 1 0.90625
vt 0.4375 0.90625
vt 0.125 0.4375
vt 0 0.4375
vt 0 1
vt 0.125 1
vt 0.34375 1
vt 0.21875 1
vt 0.21875 0.4375
vt 0.34375 0.4375
vn 0 0 -1
vn 1 0 0
vn 0 0 1
vn -1 0 0
vn 0 1 0
vn 0 -1 0
usemtl abandoned_planks
f 20/52/13 23/51/13 21/50/13 18/49/13
f 19/56/14 20/55/14 18/54/14 17/53/14
f 24/60/15 19/59/15 17/58/15 22/57/15
f 23/64/16 24/63/16 22/62/16 21/61/16
f 22/68/17 17/67/17 18/66/17 21/65/17
f 23/72/18 20/71/18 19/70/18 24/69/18
o bb_main
v 1.25 0.0625 0.5625
v 1.25 0.0625 0.3125
v 1.25 0 0.5625
v 1.25 0 0.3125
v 1.0625 0.0625 0.3125
v 1.0625 0.0625 0.5625
v 1.0625 0 0.3125
v 1.0625 0 0.5625
vt 0.53125 0.875
vt 0.625 0.875
vt 0.625 0.84375
vt 0.53125 0.84375
vt 0.875 1
vt 1 1
vt 1 0.96875
vt 0.875 0.96875
vt 0.4375 0.8125
vt 0.53125 0.8125
vt 0.53125 0.78125
vt 0.4375 0.78125
vt 0.4375 0.9375
vt 0.5625 0.9375
vt 0.5625 0.90625
vt 0.4375 0.90625
vt 0.1875 0.4375
vt 0.09375 0.4375
vt 0.09375 0.5625
vt 0.1875 0.5625
vt 0.40625 0.5625
vt 0.3125 0.5625
vt 0.3125 0.4375
vt 0.40625 0.4375
vn 0 0 -1
vn 1 0 0
vn 0 0 1
vn -1 0 0
vn 0 1 0
vn 0 -1 0
usemtl abandoned_planks
f 28/76/19 31/75/19 29/74/19 26/73/19
f 27/80/20 28/79/20 26/78/20 25/77/20
f 32/84/21 27/83/21 25/82/21 30/81/21
f 31/88/22 32/87/22 30/86/22 29/85/22
f 30/92/23 25/91/23 26/90/23 29/89/23
f 31/96/24 28/95/24 27/94/24 32/93/24
o bb_main
v -0.0785009173626885 0.03469590764763436 0.5499749283838106
v 0.9988690541976788 0.32337632147677603 0.6968168946313683
v -0.06232472704378089 -0.02567445649543243 0.5499749283838106
v 1.0150452445165863 0.26300595733370924 0.6968168946313683
v 1.0225087954612762 0.3297105710576376 0.5109209831237789
v -0.054861176099091136 0.04103015722849594 0.36407901687622113
v 1.0386849857801836 0.26934020691457083 0.5109209831237789
v -0.038684985780183645 -0.019340206914570834 0.36407901687622113
vt 0.4375 0.875
vt 0.53125 0.875
vt 0.53125 0.84375
vt 0.4375 0.84375
vt 0.4375 1
vt 1 1
vt 1 0.96875
vt 0.4375 0.96875
vt 0.53125 0.8125
vt 0.625 0.8125
vt 0.625 0.78125
vt 0.53125 0.78125
vt 0.4375 0.9375
vt 1 0.9375
vt 1 0.90625
vt 0.4375 0.90625
vt 0.09375 0.4375
vt 0 0.4375
vt 0 1
vt 0.09375 1
vt 0.3125 1
vt 0.21875 1
vt 0.21875 0.4375
vt 0.3125 0.4375
vn 0.9576621969425487 0.2566048122925704 0.1305261922200513
vn -0.12607862007251888 -0.033782664431261725 0.9914448613738104
vn -0.9576621969425487 -0.2566048122925704 -0.1305261922200513
vn 0.12607862007251888 0.033782664431261725 -0.9914448613738104
vn -0.2588190451025205 0.9659258262890684 5.551115123125784e-17
vn 0.2588190451025205 -0.9659258262890684 -5.551115123125784e-17
usemtl abandoned_planks
f 36/100/25 39/99/25 37/98/25 34/97/25
f 35/104/26 36/103/26 34/102/26 33/101/26
f 40/108/27 35/107/27 33/106/27 38/105/27
f 39/112/28 40/111/28 38/110/28 37/109/28
f 38/116/29 33/115/29 34/114/29 37/113/29
f 39/120/30 36/119/30 35/118/30 40/117/30
o bb_main
v -0.054861176099091136 0.04103015722849594 0.36407901687622113
v 0.7830932462256389 0.26555936798449503 0.47828943506876603
v -0.038684985780183645 -0.019340206914570834 0.36407901687622113
v 0.7992694365445465 0.20518900384142824 0.47828943506876603
v 0.8067329874892362 0.27189361756535657 0.2923935235611766
v -0.03122143483549389 0.04736440680935752 0.1781831053686317
v 0.8229091778081438 0.21152325342228984 0.2923935235611766
v -0.015045244516586398 -0.01300595733370924 0.1781831053686317
vt 0.53125 0.875
vt 0.625 0.875
vt 0.625 0.84375
vt 0.53125 0.84375
vt 0.4375 1
vt 0.875 1
vt 0.875 0.96875
vt 0.4375 0.96875
vt 0.4375 0.8125
vt 0.53125 0.8125
vt 0.53125 0.78125
vt 0.4375 0.78125
vt 0.5625 0.9375
vt 1 0.9375
vt 1 0.90625
vt 0.5625 0.90625
vt 0.1875 0.5625
vt 0.09375 0.5625
vt 0.09375 1
vt 0.1875 1
vt 0.40625 1
vt 0.3125 1
vt 0.3125 0.5625
vt 0.40625 0.5625
vn 0.9576621969425487 0.2566048122925704 0.1305261922200513
vn -0.12607862007251888 -0.033782664431261725 0.9914448613738104
vn -0.9576621969425487 -0.2566048122925704 -0.1305261922200513
vn 0.12607862007251888 0.033782664431261725 -0.9914448613738104
vn -0.2588190451025205 0.9659258262890684 5.551115123125784e-17
vn 0.2588190451025205 -0.9659258262890684 -5.551115123125784e-17
usemtl abandoned_planks
f 44/124/31 47/123/31 45/122/31 42/121/31
f 43/128/32 44/127/32 42/126/32 41/125/32
f 48/132/33 43/131/33 41/130/33 46/129/33
f 47/136/34 48/135/34 46/134/34 45/133/34
f 46/140/35 41/139/35 42/138/35 45/137/35
f 47/144/36 44/143/36 43/142/36 48/141/36
o bb_main
v 0.8047223234746792 0.05175747468129693 1.1545400485031232
v 1.0492618843238277 0.07761087876808478 0.05674361715675069
v 0.7886845275569901 -0.008443327426194566 1.1495498052508157
v 1.0332240884061386 0.017410076660593285 0.05175337390444301
v 0.6961032683606989 0.17801912953368607 -0.019559561998507946
v 0.4515637075115505 0.15216572544689821 1.0782368693478648
v 0.6800654724430099 0.11781832742619457 -0.024549805250815626
v 0.43552591159386145 0.09196492333940672 1.0732466260955569
vt 0.4375 0.875
vt 0.625 0.875
vt 0.625 0.84375
vt 0.4375 0.84375
vt 0.4375 1
vt 1 1
vt 1 0.96875
vt 0.4375 0.96875
vt 0.4375 0.8125
vt 0.625 0.8125
vt 0.625 0.78125
vt 0.4375 0.78125
vt 0.4375 0.9375
vt 1 0.9375
vt 1 0.90625
vt 0.4375 0.90625
vt 0.1875 0.4375
vt 0 0.4375
vt 0 1
vt 0.1875 1
vt 0.40625 1
vt 0.21875 1
vt 0.21875 0.4375
vt 0.40625 0.4375
vn 0.21736849853257645 0.02298080363270032 -0.9758190500856646
vn 0.9417563092350099 -0.2677553353749368 0.20347514441402323
vn -0.21736849853257645 -0.02298080363270032 0.9758190500856646
vn -0.9417563092350099 0.2677553353749368 -0.20347514441402323
vn 0.2566047346830253 0.9632128337198642 0.07984389203692281
vn -0.2566047346830253 -0.9632128337198642 -0.07984389203692281
usemtl abandoned_planks
f 52/148/37 55/147/37 53/146/37 50/145/37
f 51/152/38 52/151/38 50/150/38 49/149/38
f 56/156/39 51/155/39 49/154/39 54/153/39
f 55/160/40 56/159/40 54/158/40 53/157/40
f 54/164/41 49/163/41 50/162/41 53/161/41
f 55/168/42 52/167/42 51/166/42 56/165/42