# Made in Blockbench 5.1.4
mtllib abandoned_sign.mtl

o bb_main
v 0.5625 1.559359375 0.5625
v 0.5625 1.559359375 0.4375
v 0.5625 -0.003140625000000008 0.5625
v 0.5625 -0.003140625000000008 0.4375
v 0.4375 1.559359375 0.4375
v 0.4375 1.559359375 0.5625
v 0.4375 -0.003140625000000008 0.4375
v 0.4375 -0.003140625000000008 0.5625
vt 0 0.8125
vt 0.03125 0.8125
vt 0.03125 0.421875
vt 0 0.421875
vt 0.046875 0.8125
vt 0.078125 0.8125
vt 0.078125 0.421875
vt 0.046875 0.421875
vt 0.09375 0.8125
vt 0.125 0.8125
vt 0.125 0.421875
vt 0.09375 0.421875
vt 0.140625 0.8125
vt 0.171875 0.8125
vt 0.171875 0.421875
vt 0.140625 0.421875
vt 0.34375 0.96875
vt 0.3125 0.96875
vt 0.3125 1
vt 0.34375 1
vt 0.34375 0.953125
vt 0.3125 0.953125
vt 0.3125 0.921875
vt 0.34375 0.921875
vn 0 0 -1
vn 1 0 0
vn 0 0 1
vn -1 0 0
vn 0 1 0
vn 0 -1 0
usemtl abandoned_sign
f 4/4/1 7/3/1 5/2/1 2/1/1
f 3/8/2 4/7/2 2/6/2 1/5/2
f 8/12/3 3/11/3 1/10/3 6/9/3
f 7/16/4 8/15/4 6/14/4 5/13/4
f 6/20/5 1/19/5 2/18/5 5/17/5
f 7/24/6 4/23/6 3/22/6 8/21/6
o bb_main
v 0.38539862884435194 1.5265566588595902e-16 0.30332852574636354
v 0.38539862884435194 0.12500000000000017 0.30332852574636354
v 0.9952185766543792 0 -0.014123645852722286
v 0.9952185766543793 0.125 -0.0141236458527223
v 0.32768005218997265 0.12500000000000017 0.19245217159908584
v 0.32768005218997265 1.5265566588595902e-16 0.19245217159908584
v 0.9375 0.125 -0.125
v 0.9375 0 -0.12499999999999999
vt 0 0.75
vt 0.03125 0.75
vt 0.03125 0.578125
vt 0 0.578125
vt 0.046875 0.75
vt 0.078125 0.75
vt 0.078125 0.578125
vt 0.046875 0.578125
vt 0.09375 0.75
vt 0.125 0.75
vt 0.125 0.578125
vt 0.09375 0.578125
vt 0.140625 0.75
vt 0.171875 0.75
vt 0.171875 0.578125
vt 0.140625 0.578125
vt 0.34375 0.96875
vt 0.3125 0.96875
vt 0.3125 1
vt 0.34375 1
vt 0.34375 0.953125
vt 0.3125 0.953125
vt 0.3125 0.921875
vt 0.34375 0.921875
vn 1.9695597001728112e-16 1 -1.0252878840045424e-16
vn 0.46174861323503397 2.158139370829988e-17 0.8870108331782216
vn -1.9695597001728112e-16 -1 1.0252878840045424e-16
vn -0.46174861323503397 -2.158139370829988e-17 -0.8870108331782216
vn -0.8870108331782216 1.989813717131879e-16 0.461748613235034
vn 0.8870108331782216 -1.989813717131879e-16 -0.461748613235034
usemtl abandoned_sign
f 12/28/7 15/27/7 13/26/7 10/25/7
f 11/32/8 12/31/8 10/30/8 9/29/8
f 16/36/9 11/35/9 9/34/9 14/33/9
f 15/40/10 16/39/10 14/38/10 13/37/10
f 14/44/11 9/43/11 10/42/11 13/41/11
f 15/48/12 12/47/12 11/46/12 16/45/12
o bb_main
v 0 0.12185937499999999 0.5625
v 0 0.12185937499999999 0.4375
v 0 -0.003140625000000001 0.5625
v 0 -0.003140625000000001 0.4375
v -0.125 0.12185937499999999 0.4375
v -0.125 0.12185937499999999 0.5625
v -0.125 -0.003140625000000001 0.4375
v -0.125 -0.003140625000000001 0.5625
vt 0 0.78125
vt 0.03125 0.78125
vt 0.03125 0.75
vt 0 0.75
vt 0.046875 0.78125
vt 0.078125 0.78125
vt 0.078125 0.75
vt 0.046875 0.75
vt 0.09375 0.78125
vt 0.125 0.78125
vt 0.125 0.75
vt 0.09375 0.75
vt 0.140625 0.78125
vt 0.171875 0.78125
vt 0.171875 0.75
vt 0.140625 0.75
vt 0.34375 0.96875
vt 0.3125 0.96875
vt 0.3125 1
vt 0.34375 1
vt 0.34375 0.953125
vt 0.3125 0.953125
vt 0.3125 0.921875
vt 0.34375 0.921875
vn 0 0 -1
vn 1 0 0
vn 0 0 1
vn -1 0 0
vn 0 1 0
vn 0 -1 0
usemtl abandoned_sign
f 20/52/13 23/51/13 21/50/13 18/49/13
f 19/56/14 20/55/14 18/54/14 17/53/14
f 24/60/15 19/59/15 17/58/15 22/57/15
f 23/64/16 24/63/16 22/62/16 21/61/16
f 22/68/17 17/67/17 18/66/17 21/65/17
f 23/72/18 20/71/18 19/70/18 24/69/18
o bone
v 0.7622595264191646 1.420753175473055 0.43125
v 0.7622595264191646 1.420753175473055 0.38125
v 0.9185095264191645 1.1501202367904177 0.43125
v 0.9185095264191645 1.1501202367904177 0.38125
v 0.058613885844308156 1.014503175473055 0.38125
v 0.058613885844308156 1.014503175473055 0.43125
v 0.21486388584430816 0.7438702367904177 0.38125
v 0.21486388584430816 0.7438702367904177 0.43125
vt 0 1
vt 0.203125 1
vt 0.203125 0.921875
vt 0 0.921875
vt 0.28125 0.84375
vt 0.296875 0.84375
vt 0.296875 0.765625
vt 0.28125 0.765625
vt 0 0.90625
vt 0.203125 0.90625
vt 0.203125 0.828125
vt 0 0.828125
vt 0.1875 0.71875
vt 0.203125 0.71875
vt 0.203125 0.640625
vt 0.1875 0.640625
vt 0.421875 0.890625
vt 0.21875 0.890625
vt 0.21875 0.90625
vt 0.421875 0.90625
vt 0.421875 0.875
vt 0.21875 0.875
vt 0.21875 0.859375
vt 0.421875 0.859375
vn 0 0 -1
vn 0.8660254037844387 0.49999999999999994 0
vn 0 0 1
vn -0.8660254037844387 -0.49999999999999994 0
vn -0.49999999999999994 0.8660254037844387 0
vn 0.49999999999999994 -0.8660254037844387 0
usemtl abandoned_sign
f 28/76/19 31/75/19 29/74/19 26/73/19
f 27/80/20 28/79/20 26/78/20 25/77/20
f 32/84/21 27/83/21 25/82/21 30/81/21
f 31/88/22 32/87/22 30/86/22 29/85/22
f 30/92/23 25/91/23 26/90/23 29/89/23
f 31/96/24 28/95/24 27/94/24 32/93/24
o bone
v 0.3803087429320635 1.0198115177012628 0.424375
v 0.3803087429320635 1.0198115177012628 0.388125
v 0.3231173367738563 0.806370284162526 0.424375
v 0.3231173367738563 0.806370284162526 0.388125
v 0.1668669056896853 1.0770030856213733 0.388125
v 0.1668669056896853 1.0770030856213733 0.424375
v 0.10967549953147802 0.8635618520826364 0.388125
v 0.10967549953147802 0.8635618520826364 0.424375
vt 0.1875 0.8125
vt 0.265625 0.8125
vt 0.265625 0.734375
vt 0.1875 0.734375
vt 0.21875 0.71875
vt 0.234375 0.71875
vt 0.234375 0.640625
vt 0.21875 0.640625
vt 0.21875 1
vt 0.296875 1
vt 0.296875 0.921875
vt 0.21875 0.921875
vt 0.25 0.71875
vt 0.265625 0.71875
vt 0.265625 0.640625
vt 0.25 0.640625
vt 0.359375 0.734375
vt 0.28125 0.734375
vt 0.28125 0.75
vt 0.359375 0.75
vt 0.359375 0.71875
vt 0.28125 0.71875
vt 0.28125 0.703125
vt 0.359375 0.703125
vn 0 0 -1
vn 0.9659258262890682 -0.2588190451025209 0
vn 0 0 1
vn -0.9659258262890682 0.2588190451025209 0
vn 0.2588190451025209 0.9659258262890682 0
vn -0.2588190451025209 -0.9659258262890682 0
usemtl abandoned_sign
f 36/100/25 39/99/25 37/98/25 34/97/25
f 35/104/26 36/103/26 34/102/26 33/101/26
f 40/108/27 35/107/27 33/106/27 38/105/27
f 39/112/28 40/111/28 38/110/28 37/109/28
f 38/116/29 33/115/29 34/114/29 37/113/29
f 39/120/30 36/119/30 35/118/30 40/117/30
o bone
v 0.7935093102717552 1.3666266456530511 0.424375
v 0.7935093102717552 1.3666266456530511 0.388125
v 0.7591944342244503 1.238561784789081 0.424375
v 0.7591944342244503 1.238561784789081 0.388125
v 0.7331389461286884 1.3828028359719586 0.388125
v 0.7331389461286884 1.3828028359719586 0.424375
v 0.6988240700813835 1.2547379751079886 0.388125
v 0.6988240700813835 1.2547379751079886 0.424375
vt 0.3125 0.84375
vt 0.328125 0.84375
vt 0.328125 0.796875
vt 0.3125 0.796875
vt 0.28125 0.6875
vt 0.296875 0.6875
vt 0.296875 0.640625
vt 0.28125 0.640625
vt 0.3125 0.6875
vt 0.328125 0.6875
vt 0.328125 0.640625
vt 0.3125 0.640625
vt 0.34375 0.84375
vt 0.359375 0.84375
vt 0.359375 0.796875
vt 0.34375 0.796875
vt 0.234375 0.828125
vt 0.21875 0.828125
vt 0.21875 0.84375
vt 0.234375 0.84375
vt 0.265625 0.84375
vt 0.25 0.84375
vt 0.25 0.828125
vt 0.265625 0.828125
vn 0 0 -1
vn 0.9659258262890682 -0.2588190451025209 0
vn 0 0 1
vn -0.9659258262890682 0.2588190451025209 0
vn 0.2588190451025209 0.9659258262890682 0
vn -0.2588190451025209 -0.9659258262890682 0
usemtl abandoned_sign
f 44/124/31 47/123/31 45/122/31 42/121/31
f 43/128/32 44/127/32 42/126/32 41/125/32
f 48/132/33 43/131/33 41/130/33 46/129/33
f 47/136/34 48/135/34 46/134/34 45/133/34
f 46/140/35 41/139/35 42/138/35 45/137/35
f 47/144/36 44/143/36 43/142/36 48/141/36
o bone
v 0.6738179006748087 1.2614386364883958 0.424375
v 0.6738179006748087 1.2614386364883958 0.388125
v 0.8872597379171869 1.2042470685682853 0.424375
v 0.8872597379171869 1.2042470685682853 0.388125
v 0.6576417103559011 1.201068272345329 0.388125
v 0.6576417103559011 1.201068272345329 0.424375
v 0.8710835475982793 1.1438767044252187 0.388125
v 0.8710835475982793 1.1438767044252187 0.424375
vt 0.34375 0.6875
vt 0.359375 0.6875
vt 0.359375 0.609375
vt 0.34375 0.609375
vt 0.359375 1
vt 0.375 1
vt 0.375 0.921875
vt 0.359375 0.921875
vt 0.375 0.84375
vt 0.390625 0.84375
vt 0.390625 0.765625
vt 0.375 0.765625
vt 0.1875 0.625
vt 0.203125 0.625
vt 0.203125 0.546875
vt 0.1875 0.546875
vt 0.328125 0.765625
vt 0.3125 0.765625
vt 0.3125 0.78125
vt 0.328125 0.78125
vt 0.359375 0.78125
vt 0.34375 0.78125
vt 0.34375 0.765625
vt 0.359375 0.765625
vn 0 0 -1
vn 0.2588190451025208 0.9659258262890684 0
vn 0 0 1
vn -0.2588190451025208 -0.9659258262890684 0
vn -0.9659258262890684 0.2588190451025208 0
vn 0.9659258262890684 -0.2588190451025208 0
usemtl abandoned_sign
f 52/148/37 55/147/37 53/146/37 50/145/37
f 51/152/38 52/151/38 50/150/38 49/149/38
f 56/156/39 51/155/39 49/154/39 54/153/39
f 55/160/40 56/159/40 54/158/40 53/157/40
f 54/164/41 49/163/41 50/162/41 53/161/41
f 55/168/42 52/167/42 51/166/42 56/165/42
o bone2
v 0.894418302401378 0.125 0.8835128072141526
v 0.894418302401378 0.1875 0.8835128072141526
v 1.0952894304284215 0.125 0.644123918739472
v 1.0952894304284215 0.1875 0.644123918739472
v 0.2720071923672084 0.1875000000000001 0.3612478743438395
v 0.27200719236720833 0.12500000000000006 0.3612478743438395
v 0.4728783203942518 0.1875 0.12185898586915878
v 0.4728783203942518 0.125 0.12185898586915878
vt 0 1
vt 0.203125 1
vt 0.203125 0.921875
vt 0 0.921875
vt 0.28125 0.84375
vt 0.296875 0.84375
vt 0.296875 0.765625
vt 0.28125 0.765625
vt 0 0.90625
vt 0.203125 0.90625
vt 0.203125 0.828125
vt 0 0.828125
vt 0.1875 0.71875
vt 0.203125 0.71875
vt 0.203125 0.640625
vt 0.1875 0.640625
vt 0.421875 0.890625
vt 0.21875 0.890625
vt 0.21875 0.90625
vt 0.421875 0.90625
vt 0.421875 0.875
vt 0.21875 0.875
vt 0.21875 0.859375
vt 0.421875 0.859375
vn 1.1388776935361868e-16 1 -4.936613765279635e-17
vn 0.7660444431189781 -1.2757202679552685e-16 0.6427876096865393
vn -1.1388776935361868e-16 -1 4.936613765279635e-17
vn -0.7660444431189781 1.2757202679552685e-16 -0.6427876096865393
vn -0.6427876096865393 1.0704564063266463e-16 0.7660444431189781
vn 0.6427876096865393 -1.0704564063266463e-16 -0.7660444431189781
usemtl abandoned_sign
f 60/172/43 63/171/43 61/170/43 58/169/43
f 59/176/44 60/175/44 58/174/44 57/173/44
f 64/180/45 59/179/45 57/178/45 62/177/45
f 63/184/46 64/183/46 62/182/46 61/181/46
f 62/188/47 57/187/47 58/186/47 61/185/47
f 63/192/48 60/191/48 59/190/48 64/189/48
o bone2
v 0.5878928133862997 0.12562500000000001 0.3419887725807488
v 0.5878928133862997 0.180625 0.3419887725807488
v 0.5686339544390104 0.125625 0.12185900752172937
v 0.5686339544390104 0.18062499999999998 0.12185900752172937
v 0.3677624257055941 0.18062500000000004 0.36124768600037727
v 0.36776242570559403 0.12562500000000004 0.36124768600037727
v 0.3485035667583048 0.18062500000000004 0.1411179209413579
v 0.3485035667583048 0.12562500000000004 0.1411179209413579
vt 0.1875 0.8125
vt 0.265625 0.8125
vt 0.265625 0.734375
vt 0.1875 0.734375
vt 0.21875 0.71875
vt 0.234375 0.71875
vt 0.234375 0.640625
vt 0.21875 0.640625
vt 0.21875 1
vt 0.296875 1
vt 0.296875 0.921875
vt 0.21875 0.921875
vt 0.25 0.71875
vt 0.265625 0.71875
vt 0.265625 0.640625
vt 0.25 0.640625
vt 0.359375 0.734375
vt 0.28125 0.734375
vt 0.28125 0.75
vt 0.359375 0.75
vt 0.359375 0.71875
vt 0.28125 0.71875
vt 0.28125 0.703125
vt 0.359375 0.703125
vn 1.138877693536187e-16 1 -4.936613765279635e-17
vn 0.9961946980917455 -1.6589974362464437e-16 -0.08715574274765836
vn -1.138877693536187e-16 -1 4.936613765279635e-17
vn -0.9961946980917455 1.6589974362464437e-16 0.08715574274765836
vn 0.08715574274765836 -1.4514346849013597e-17 0.9961946980917455
vn -0.08715574274765836 1.4514346849013597e-17 -0.9961946980917455
usemtl abandoned_sign
f 68/196/49 71/195/49 69/194/49 66/193/49
f 67/200/50 68/199/50 66/198/50 65/197/50
f 72/204/51 67/203/51 65/202/51 70/201/51
f 71/208/52 72/207/52 70/206/52 69/205/52
f 70/212/53 65/211/53 66/210/53 69/209/53
f 71/216/54 68/215/54 67/214/54 72/213/54
o bone2
v 0.9345922176434649 0.125625 0.4139231508304262
v 0.9345922176434649 0.186875 0.4139231508304262
v 0.9230368913806235 0.125625 0.2818451672706773
v 0.9230368913806235 0.186875 0.2818451672706773
v 0.8723300490127308 0.186875 0.4193703847521549
v 0.8723300490127308 0.125625 0.4193703847521549
v 0.8607747227498894 0.186875 0.28729240119240596
v 0.8607747227498894 0.125625 0.28729240119240596
vt 0.3125 0.84375
vt 0.328125 0.84375
vt 0.328125 0.796875
vt 0.3125 0.796875
vt 0.28125 0.6875
vt 0.296875 0.6875
vt 0.296875 0.640625
vt 0.28125 0.640625
vt 0.3125 0.6875
vt 0.328125 0.6875
vt 0.328125 0.640625
vt 0.3125 0.640625
vt 0.34375 0.84375
vt 0.359375 0.84375
vt 0.359375 0.796875
vt 0.34375 0.796875
vt 0.234375 0.828125
vt 0.21875 0.828125
vt 0.21875 0.84375
vt 0.234375 0.84375
vt 0.265625 0.84375
vt 0.25 0.84375
vt 0.25 0.828125
vt 0.265625 0.828125
vn 1.138877693536187e-16 1 -4.936613765279635e-17
vn 0.9961946980917455 -1.6589974362464437e-16 -0.08715574274765836
vn -1.138877693536187e-16 -1 4.936613765279635e-17
vn -0.9961946980917455 1.6589974362464437e-16 0.08715574274765836
vn 0.08715574274765836 -1.4514346849013597e-17 0.9961946980917455
vn -0.08715574274765836 1.4514346849013597e-17 -0.9961946980917455
usemtl abandoned_sign
f 76/220/55 79/219/55 77/218/55 74/217/55
f 75/224/56 76/223/56 74/222/56 73/221/56
f 80/228/57 75/227/57 73/226/57 78/225/57
f 79/232/58 80/231/58 78/230/58 77/229/58
f 78/236/59 73/235/59 74/234/59 77/233/59
f 79/240/60 76/239/60 75/238/60 80/237/60
o bone2
v 0.834984895607287 0.125625 0.2895489887222585
v 0.834984895607287 0.186875 0.2895489887222585
v 1.0551152832879926 0.12562499999999996 0.27029007530263005
v 1.0551152832879926 0.18687499999999999 0.27029007530263005
v 0.8295376616855583 0.186875 0.22728682009152443
v 0.8295376616855583 0.125625 0.22728682009152443
v 1.049668049366264 0.18687499999999999 0.20802790667189597
v 1.049668049366264 0.12562499999999996 0.20802790667189597
vt 0.34375 0.6875
vt 0.359375 0.6875
vt 0.359375 0.609375
vt 0.34375 0.609375
vt 0.359375 1
vt 0.375 1
vt 0.375 0.921875
vt 0.359375 0.921875
vt 0.375 0.84375
vt 0.390625 0.84375
vt 0.390625 0.765625
vt 0.375 0.765625
vt 0.1875 0.625
vt 0.203125 0.625
vt 0.203125 0.546875
vt 0.1875 0.546875
vt 0.328125 0.765625
vt 0.3125 0.765625
vt 0.3125 0.78125
vt 0.328125 0.78125
vt 0.359375 0.78125
vt 0.34375 0.78125
vt 0.34375 0.765625
vt 0.359375 0.765625
vn 1.1388776935361868e-16 1 -4.936613765279634e-17
vn 0.0871557427476582 -1.451434684901357e-17 0.9961946980917455
vn -1.1388776935361868e-16 -1 4.936613765279634e-17
vn -0.0871557427476582 1.451434684901357e-17 -0.9961946980917455
vn -0.9961946980917455 1.6589974362464437e-16 0.0871557427476582
vn 0.9961946980917455 -1.6589974362464437e-16 -0.0871557427476582
usemtl abandoned_sign
f 84/244/61 87/243/61 85/242/61 82/241/61
f 83/248/62 84/247/62 82/246/62 81/245/62
f 88/252/63 83/251/63 81/250/63 86/249/63
f 87/256/64 88/255/64 86/254/64 85/253/64
f 86/260/65 81/259/65 82/258/65 85/257/65
f 87/264/66 84/263/66 83/262/66 88/261/66