# Made in Blockbench 5.1.4
mtllib tequila.mtl

o bb_main
v 0.59375 0.9762960071199334 0.22106038606189712
v 0.59375 0.9762960071199334 0.22106038606189712
v 0.59375 0 0.4375
v 0.59375 0 0.4375
v 0.40625 0.9762960071199334 0.22106038606189712
v 0.40625 0.9762960071199334 0.22106038606189712
v 0.40625 0 0.4375
v 0.40625 0 0.4375
vt 1 1
vt 1 1
vt 1 0
vt 1 0
vt 0 1
vt 0.1875 1
vt 0.1875 0
vt 0 0
vt 0 -0.0625
vt 0 -0.0625
vt 0 -1.0625
vt 0 -1.0625
vt 1.25 1
vt 1.0625 1
vt 1.0625 1
vt 1.25 1
vt 0.25 -0.0625
vt 0.0625 -0.0625
vt 0.0625 -0.0625
vt 0.25 -0.0625
vn 1 0 0
vn 0 0.21643961393810288 0.9762960071199334
vn -1 0 0
vn 0 0.9762960071199334 -0.21643961393810288
vn 0 -0.9762960071199334 0.21643961393810288
usemtl tequila
f 3/4/1 4/3/1 2/2/1 1/1/1
f 8/8/2 3/7/2 1/6/2 6/5/2
f 7/12/3 8/11/3 6/10/3 5/9/3
f 6/16/4 1/15/4 2/14/4 5/13/4
f 7/20/5 4/19/5 3/18/5 8/17/5
o bb_main
v 0.21768850641263143 0.8870104621532209 0.02260598494015381
v 0.21768850641263143 0.8870104621532209 0.02260598494015381
v 0.5441940820346083 -3.7102500088925794e-7 0.34911156056213066
v 0.5441940820346083 -3.7102500088925794e-7 0.34911156056213066
v 0.08510598494015381 0.8870104621532209 0.15518850641263143
v 0.08510598494015381 0.8870104621532209 0.15518850641263143
v 0.4116115605621306 -3.7102500088925794e-7 0.4816940820346083
v 0.4116115605621306 -3.7102500088925794e-7 0.4816940820346083
vt 1.0625 0.9375
vt 1.0625 0.9375
vt 1.0625 -0.0625
vt 1.0625 -0.0625
vt 0.25 1
vt 0.4375 1
vt 0.4375 0
vt 0.25 0
vt 0.3125 -0.0625
vt 0.3125 -0.0625
vt 0.3125 -1.0625
vt 0.3125 -1.0625
vt 0.5625 -0.0625
vt 0.375 -0.0625
vt 0.375 -0.0625
vt 0.5625 -0.0625
vt 0.8125 -0.0625
vt 0.625 -0.0625
vt 0.625 -0.0625
vt 0.8125 -0.0625
vn 0.7071067811865476 0 -0.7071067811865476
vn 0.62721137512625 0.46174861323503386 0.62721137512625
vn -0.7071067811865476 0 0.7071067811865476
vn -0.32650557562197685 0.8870108331782218 -0.3265055756219769
vn 0.32650557562197685 -0.8870108331782218 0.3265055756219769
usemtl tequila
f 11/24/6 12/23/6 10/22/6 9/21/6
f 16/28/7 11/27/7 9/26/7 14/25/7
f 15/32/8 16/31/8 14/30/8 13/29/8
f 14/36/9 9/35/9 10/34/9 13/33/9
f 15/40/10 12/39/10 11/38/10 16/37/10
o bb_main
v 0.59375 0.8191523000218869 -0.19857645944114366
v 0.59375 0.8191523000218869 -0.19857645944114366
v 0.59375 2.557328950061888e-7 0.37499997690990244
v 0.59375 2.557328950061888e-7 0.37499997690990244
v 0.40625 0.8191523000218869 -0.19857645944114366
v 0.40625 0.8191523000218869 -0.19857645944114366
v 0.40625 2.557328950061888e-7 0.37499997690990244
v 0.40625 2.557328950061888e-7 0.37499997690990244
vt 0.875 -0.0625
vt 0.875 -0.0625
vt 0.875 -1.0625
vt 0.875 -1.0625
vt 0.5 1
vt 0.6875 1
vt 0.6875 0
vt 0.5 0
vt 0.9375 -0.0625
vt 0.9375 -0.0625
vt 0.9375 -1.0625
vt 0.9375 -1.0625
vt 0.25 -0.125
vt 0.0625 -0.125
vt 0.0625 -0.125
vt 0.25 -0.125
vt 1.3125 0.9375
vt 1.125 0.9375
vt 1.125 0.9375
vt 1.3125 0.9375
vn 1 0 0
vn 0 0.573576436351046 0.8191520442889918
vn -1 0 0
vn 0 0.8191520442889918 -0.573576436351046
vn 0 -0.8191520442889918 0.573576436351046
usemtl tequila
f 19/44/11 20/43/11 18/42/11 17/41/11
f 24/48/12 19/47/12 17/46/12 22/45/12
f 23/52/13 24/51/13 22/50/13 21/49/13
f 22/56/14 17/55/14 18/54/14 21/53/14
f 23/60/15 20/59/15 19/58/15 24/57/15
o bb_main
v 1.0736238842401491e-8 0.7071067811865475 -0.1950825107362386
v 1.0736238842401491e-8 0.7071067811865475 -0.1950825107362386
v 0.5000000107362388 -4.85722573273506e-17 0.30491748926376117
v 0.5000000107362388 -4.85722573273506e-17 0.30491748926376117
v -0.13258251073623872 0.7071067811865475 -0.06249998926376105
v -0.13258251073623872 0.7071067811865475 -0.06249998926376105
v 0.36741748926376117 -3.469446951953614e-17 0.43750001073623884
v 0.36741748926376117 -3.469446951953614e-17 0.43750001073623884
vt 1 -0.0625
vt 1 -0.0625
vt 1 -1.0625
vt 1 -1.0625
vt 0.75 1
vt 0.9375 1
vt 0.9375 0
vt 0.75 0
vt 1.125 0.875
vt 1.125 0.875
vt 1.125 -0.125
vt 1.125 -0.125
vt 0.5625 -0.125
vt 0.375 -0.125
vt 0.375 -0.125
vt 0.5625 -0.125
vt 0.8125 -0.125
vt 0.625 -0.125
vt 0.625 -0.125
vt 0.8125 -0.125
vn 0.7071067811865475 0 -0.7071067811865476
vn 0.5 0.7071067811865476 0.5
vn -0.7071067811865475 0 0.7071067811865476
vn -0.5000000000000001 0.7071067811865476 -0.5000000000000001
vn 0.5000000000000001 -0.7071067811865476 0.5000000000000001
usemtl tequila
f 27/64/16 28/63/16 26/62/16 25/61/16
f 32/68/17 27/67/17 25/66/17 30/65/17
f 31/72/18 32/71/18 30/70/18 29/69/18
f 30/76/19 25/75/19 26/74/19 29/73/19
f 31/80/20 28/79/20 27/78/20 32/77/20
o bb_main
v 0.28356038606189715 0.9762960071199334 0.34375
v 0.28356038606189715 0.9762960071199334 0.34375
v 0.5 3.903127820947816e-18 0.34375
v 0.5 3.903127820947816e-18 0.34375
v 0.28356038606189715 0.9762960071199334 0.53125
v 0.28356038606189715 0.9762960071199334 0.53125
v 0.5 -3.903127820947816e-18 0.53125
v 0.5 -3.903127820947816e-18 0.53125
vt 1 1
vt 1 1
vt 1 0
vt 1 0
vt 0 1
vt 0.1875 1
vt 0.1875 0
vt 0 0
vt 0 -0.0625
vt 0 -0.0625
vt 0 -1.0625
vt 0 -1.0625
vt 1.25 1
vt 1.0625 1
vt 1.0625 1
vt 1.25 1
vt 0.25 -0.0625
vt 0.0625 -0.0625
vt 0.0625 -0.0625
vt 0.25 -0.0625
vn 2.167812611908312e-16 4.805924856701236e-17 -1
vn 0.9762960071199335 0.21643961393810288 2.2579237029714604e-16
vn -2.167812611908312e-16 -4.805924856701236e-17 1
vn -0.2164396139381029 0.9762960071199334 -7.412762093731516e-18
vn 0.2164396139381029 -0.9762960071199334 7.412762093731516e-18
usemtl tequila
f 35/84/21 36/83/21 34/82/21 33/81/21
f 40/88/22 35/87/22 33/86/22 38/85/22
f 39/92/23 40/91/23 38/90/23 37/89/23
f 38/96/24 33/95/24 34/94/24 37/93/24
f 39/100/25 36/99/25 35/98/25 40/97/25
o bb_main
v 0.08510598494015387 0.8870104621532209 0.7198114935873686
v 0.08510598494015387 0.8870104621532209 0.7198114935873686
v 0.41161156056213066 -3.710250008788496e-7 0.3933059179653917
v 0.41161156056213066 -3.710250008788496e-7 0.3933059179653917
v 0.2176885064126315 0.8870104621532209 0.8523940150598462
v 0.2176885064126315 0.8870104621532209 0.8523940150598462
v 0.5441940820346083 -3.7102500089619683e-7 0.5258884394378693
v 0.5441940820346083 -3.7102500089619683e-7 0.5258884394378693
vt 1.0625 0.9375
vt 1.0625 0.9375
vt 1.0625 -0.0625
vt 1.0625 -0.0625
vt 0.25 1
vt 0.4375 1
vt 0.4375 0
vt 0.25 0
vt 0.3125 -0.0625
vt 0.3125 -0.0625
vt 0.3125 -1.0625
vt 0.3125 -1.0625
vt 0.5625 -0.0625
vt 0.375 -0.0625
vt 0.375 -0.0625
vt 0.5625 -0.0625
vt 0.8125 -0.0625
vt 0.625 -0.0625
vt 0.625 -0.0625
vt 0.8125 -0.0625
vn -0.7071067811865476 5.551115123125783e-17 -0.7071067811865475
vn 0.6272113751262501 0.4617486132350339 -0.6272113751262501
vn 0.7071067811865476 -5.551115123125783e-17 0.7071067811865475
vn -0.3265055756219768 0.8870108331782218 0.3265055756219769
vn 0.3265055756219768 -0.8870108331782218 -0.3265055756219769
usemtl tequila
f 43/104/26 44/103/26 42/102/26 41/101/26
f 48/108/27 43/107/27 41/106/27 46/105/27
f 47/112/28 48/111/28 46/110/28 45/109/28
f 46/116/29 41/115/29 42/114/29 45/113/29
f 47/120/30 44/119/30 43/118/30 48/117/30
o bb_main
v -0.13607645944114366 0.8191523000218869 0.34374999999999994
v -0.13607645944114366 0.8191523000218869 0.34374999999999994
v 0.43749997690990244 2.5573289500965823e-7 0.34375
v 0.43749997690990244 2.5573289500965823e-7 0.34375
v -0.13607645944114366 0.8191523000218869 0.5312499999999999
v -0.13607645944114366 0.8191523000218869 0.5312499999999999
v 0.43749997690990244 2.5573289500271934e-7 0.53125
v 0.43749997690990244 2.5573289500271934e-7 0.53125
vt 0.875 -0.0625
vt 0.875 -0.0625
vt 0.875 -1.0625
vt 0.875 -1.0625
vt 0.5 1
vt 0.6875 1
vt 0.6875 0
vt 0.5 0
vt 0.9375 -0.0625
vt 0.9375 -0.0625
vt 0.9375 -1.0625
vt 0.9375 -1.0625
vt 0.25 -0.125
vt 0.0625 -0.125
vt 0.0625 -0.125
vt 0.25 -0.125
vt 1.3125 0.9375
vt 1.125 0.9375
vt 1.125 0.9375
vt 1.3125 0.9375
vn 2.1372818034864983e-16 8.188748019195517e-17 -1
vn 0.8191520442889918 0.573576436351046 1.2278403432480933e-16
vn -2.1372818034864983e-16 -8.188748019195517e-17 1
vn -0.5735764363510462 0.8191520442889919 -1.820770359001747e-17
vn 0.5735764363510462 -0.8191520442889919 1.820770359001747e-17
usemtl tequila
f 51/124/31 52/123/31 50/122/31 49/121/31
f 56/128/32 51/127/32 49/126/32 54/125/32
f 55/132/33 56/131/33 54/130/33 53/129/33
f 54/136/34 49/135/34 50/134/34 53/133/34
f 55/140/35 52/139/35 51/138/35 56/137/35
o bb_main
v -0.13258251073623872 0.7071067811865475 0.9374999892637612
v -0.13258251073623872 0.7071067811865475 0.9374999892637612
v 0.36741748926376117 -3.469446951953614e-17 0.43749998926376116
v 0.36741748926376117 -3.469446951953614e-17 0.43749998926376116
v 1.0736238842401491e-8 0.7071067811865475 1.0700825107362388
v 1.0736238842401491e-8 0.7071067811865475 1.0700825107362388
v 0.5000000107362388 -6.245004513516506e-17 0.5700825107362388
v 0.5000000107362388 -6.245004513516506e-17 0.5700825107362388
vt 1 -0.0625
vt 1 -0.0625
vt 1 -1.0625
vt 1 -1.0625
vt 0.75 1
vt 0.9375 1
vt 0.9375 0
vt 0.75 0
vt 1.125 0.875
vt 1.125 0.875
vt 1.125 -0.125
vt 1.125 -0.125
vt 0.5625 -0.125
vt 0.375 -0.125
vt 0.375 -0.125
vt 0.5625 -0.125
vt 0.8125 -0.125
vt 0.625 -0.125
vt 0.625 -0.125
vt 0.8125 -0.125
vn -0.7071067811865476 0 -0.7071067811865475
vn 0.5 0.7071067811865476 -0.49999999999999994
vn 0.7071067811865476 0 0.7071067811865475
vn -0.5 0.7071067811865476 0.5000000000000001
vn 0.5 -0.7071067811865476 -0.5000000000000001
usemtl tequila
f 59/144/36 60/143/36 58/142/36 57/141/36
f 64/148/37 59/147/37 57/146/37 62/145/37
f 63/152/38 64/151/38 62/150/38 61/149/38
f 62/156/39 57/155/39 58/154/39 61/153/39
f 63/160/40 60/159/40 59/158/40 64/157/40
o bb_main
v 0.40624999999999983 0.9762960071199333 0.6539396139381032
v 0.40624999999999983 0.9762960071199333 0.6539396139381032
v 0.40624999999999994 -1.1481063742006439e-17 0.4375
v 0.40624999999999994 -1.1481063742006439e-17 0.4375
v 0.5937499999999999 0.9762960071199333 0.6539396139381032
v 0.5937499999999999 0.9762960071199333 0.6539396139381032
v 0.59375 1.1481063742006439e-17 0.4375
v 0.59375 1.1481063742006439e-17 0.4375
vt 1 1
vt 1 1
vt 1 0
vt 1 0
vt 0 1
vt 0.1875 1
vt 0.1875 0
vt 0 0
vt 0 -0.0625
vt 0 -0.0625
vt 0 -1.0625
vt 0 -1.0625
vt 1.25 1
vt 1.0625 1
vt 1.0625 1
vt 1.25 1
vt 0.25 -0.0625
vt 0.0625 -0.0625
vt 0.0625 -0.0625
vt 0.25 -0.0625
vn -1 -1.2246467991473535e-16 -3.0814879110195767e-33
vn -2.6506208041798696e-17 0.21643961393810324 -0.9762960071199335
vn 1 1.2246467991473535e-16 3.0814879110195767e-33
vn -1.1956177801397677e-16 0.9762960071199334 0.21643961393810315
vn 1.1956177801397677e-16 -0.9762960071199334 -0.21643961393810315
usemtl tequila
f 67/164/41 68/163/41 66/162/41 65/161/41
f 72/168/42 67/167/42 65/166/42 70/165/42
f 71/172/43 72/171/43 70/170/43 69/169/43
f 70/176/44 65/175/44 66/174/44 69/173/44
f 71/180/45 68/179/45 67/178/45 72/177/45
o bb_main
v 0.7823114935873687 0.8870104621532208 0.8523940150598464
v 0.7823114935873687 0.8870104621532208 0.8523940150598464
v 0.4558059179653917 -3.7102500088925794e-7 0.5258884394378693
v 0.4558059179653917 -3.7102500088925794e-7 0.5258884394378693
v 0.9148940150598464 0.8870104621532208 0.7198114935873685
v 0.9148940150598464 0.8870104621532208 0.7198114935873685
v 0.5883884394378693 -3.710250008996663e-7 0.3933059179653917
v 0.5883884394378693 -3.710250008996663e-7 0.3933059179653917
vt 1.0625 0.9375
vt 1.0625 0.9375
vt 1.0625 -0.0625
vt 1.0625 -0.0625
vt 0.25 1
vt 0.4375 1
vt 0.4375 0
vt 0.25 0
vt 0.3125 -0.0625
vt 0.3125 -0.0625
vt 0.3125 -1.0625
vt 0.3125 -1.0625
vt 0.5625 -0.0625
vt 0.375 -0.0625
vt 0.375 -0.0625
vt 0.5625 -0.0625
vt 0.8125 -0.0625
vt 0.625 -0.0625
vt 0.625 -0.0625
vt 0.8125 -0.0625
vn -0.7071067811865476 1.1102230246251568e-16 0.7071067811865476
vn -0.62721137512625 0.461748613235034 -0.6272113751262499
vn 0.7071067811865476 -1.1102230246251568e-16 -0.7071067811865476
vn 0.326505575621977 0.8870108331782216 0.3265055756219769
vn -0.326505575621977 -0.8870108331782216 -0.3265055756219769
usemtl tequila
f 75/184/46 76/183/46 74/182/46 73/181/46
f 80/188/47 75/187/47 73/186/47 78/185/47
f 79/192/48 80/191/48 78/190/48 77/189/48
f 78/196/49 73/195/49 74/194/49 77/193/49
f 79/200/50 76/199/50 75/198/50 80/197/50
o bb_main
v 0.4062500000000001 0.8191523000218865 1.0735764594411439
v 0.4062500000000001 0.8191523000218865 1.0735764594411439
v 0.40625 2.5573289498884155e-7 0.5000000230900976
v 0.40625 2.5573289498884155e-7 0.5000000230900976
v 0.5937500000000001 0.8191523000218865 1.0735764594411439
v 0.5937500000000001 0.8191523000218865 1.0735764594411439
v 0.59375 2.5573289496802487e-7 0.5000000230900976
v 0.59375 2.5573289496802487e-7 0.5000000230900976
vt 0.875 -0.0625
vt 0.875 -0.0625
vt 0.875 -1.0625
vt 0.875 -1.0625
vt 0.5 1
vt 0.6875 1
vt 0.6875 0
vt 0.5 0
vt 0.9375 -0.0625
vt 0.9375 -0.0625
vt 0.9375 -1.0625
vt 0.9375 -1.0625
vt 0.25 -0.125
vt 0.0625 -0.125
vt 0.0625 -0.125
vt 0.25 -0.125
vt 1.3125 0.9375
vt 1.125 0.9375
vt 1.125 0.9375
vt 1.3125 0.9375
vn -1 1.2246467991473532e-16 0
vn 7.024285468436547e-17 0.5735764363510464 -0.8191520442889915
vn 1 -1.2246467991473532e-16 0
vn 1.0031719290535247e-16 0.8191520442889916 0.5735764363510465
vn -1.0031719290535247e-16 -0.8191520442889916 -0.5735764363510465
usemtl tequila
f 83/204/51 84/203/51 82/202/51 81/201/51
f 88/208/52 83/207/52 81/206/52 86/205/52
f 87/212/53 88/211/53 86/210/53 85/209/53
f 86/216/54 81/215/54 82/214/54 85/213/54
f 87/220/55 84/219/55 83/218/55 88/217/55
o bb_main
v 0.9999999892637614 0.7071067811865472 1.0700825107362388
v 0.9999999892637614 0.7071067811865472 1.0700825107362388
v 0.49999998926376116 -5.551115123125783e-17 0.5700825107362388
v 0.49999998926376116 -5.551115123125783e-17 0.5700825107362388
v 1.1325825107362388 0.7071067811865472 0.9374999892637612
v 1.1325825107362388 0.7071067811865472 0.9374999892637612
v 0.6325825107362388 -6.938893903907228e-17 0.43749998926376116
v 0.6325825107362388 -6.938893903907228e-17 0.43749998926376116
vt 1 -0.0625
vt 1 -0.0625
vt 1 -1.0625
vt 1 -1.0625
vt 0.75 1
vt 0.9375 1
vt 0.9375 0
vt 0.75 0
vt 1.125 0.875
vt 1.125 0.875
vt 1.125 -0.125
vt 1.125 -0.125
vt 0.5625 -0.125
vt 0.375 -0.125
vt 0.375 -0.125
vt 0.5625 -0.125
vt 0.8125 -0.125
vt 0.625 -0.125
vt 0.625 -0.125
vt 0.8125 -0.125
vn -0.7071067811865475 1.6653345369377348e-16 0.7071067811865477
vn -0.49999999999999994 0.7071067811865478 -0.5
vn 0.7071067811865475 -1.6653345369377348e-16 -0.7071067811865477
vn 0.5000000000000002 0.7071067811865475 0.5000000000000001
vn -0.5000000000000002 -0.7071067811865475 -0.5000000000000001
usemtl tequila
f 91/224/56 92/223/56 90/222/56 89/221/56
f 96/228/57 91/227/57 89/226/57 94/225/57
f 95/232/58 96/231/58 94/230/58 93/229/58
f 94/236/59 89/235/59 90/234/59 93/233/59
f 95/240/60 92/239/60 91/238/60 96/237/60
o bb_main
v 1.1325825107362388 0.7071067811865475 -0.06249998926376105
v 1.1325825107362388 0.7071067811865475 -0.06249998926376105
v 0.6325825107362388 -3.469446951953614e-17 0.43750001073623884
v 0.6325825107362388 -3.469446951953614e-17 0.43750001073623884
v 0.9999999892637612 0.7071067811865475 -0.1950825107362386
v 0.9999999892637612 0.7071067811865475 -0.1950825107362386
v 0.49999998926376116 -4.85722573273506e-17 0.30491748926376117
v 0.49999998926376116 -4.85722573273506e-17 0.30491748926376117
vt 1 -0.0625
vt 1 -0.0625
vt 1 -1.0625
vt 1 -1.0625
vt 0.75 1
vt 0.9375 1
vt 0.9375 0
vt 0.75 0
vt 1.125 0.875
vt 1.125 0.875
vt 1.125 -0.125
vt 1.125 -0.125
vt 0.5625 -0.125
vt 0.375 -0.125
vt 0.375 -0.125
vt 0.5625 -0.125
vt 0.8125 -0.125
vt 0.625 -0.125
vt 0.625 -0.125
vt 0.8125 -0.125
vn 0.7071067811865475 0 0.7071067811865476
vn -0.5 0.7071067811865476 0.5
vn -0.7071067811865475 0 -0.7071067811865476
vn 0.5000000000000001 0.7071067811865476 -0.5000000000000001
vn -0.5000000000000001 -0.7071067811865476 0.5000000000000001
usemtl tequila
f 99/244/61 100/243/61 98/242/61 97/241/61
f 104/248/62 99/247/62 97/246/62 102/245/62
f 103/252/63 104/251/63 102/250/63 101/249/63
f 102/256/64 97/255/64 98/254/64 101/253/64
f 103/260/65 100/259/65 99/258/65 104/257/65
o bb_main
v 1.1360764594411437 0.8191523000218869 0.5312499999999999
v 1.1360764594411437 0.8191523000218869 0.5312499999999999
v 0.5625000230900976 2.5573289500271934e-7 0.53125
v 0.5625000230900976 2.5573289500271934e-7 0.53125
v 1.1360764594411437 0.8191523000218869 0.34374999999999994
v 1.1360764594411437 0.8191523000218869 0.34374999999999994
v 0.5625000230900975 2.5573289500965823e-7 0.34375
v 0.5625000230900975 2.5573289500965823e-7 0.34375
vt 0.875 -0.0625
vt 0.875 -0.0625
vt 0.875 -1.0625
vt 0.875 -1.0625
vt 0.5 1
vt 0.6875 1
vt 0.6875 0
vt 0.5 0
vt 0.9375 -0.0625
vt 0.9375 -0.0625
vt 0.9375 -1.0625
vt 0.9375 -1.0625
vt 0.25 -0.125
vt 0.0625 -0.125
vt 0.0625 -0.125
vt 0.25 -0.125
vt 1.3125 0.9375
vt 1.125 0.9375
vt 1.125 0.9375
vt 1.3125 0.9375
vn 2.1372818034864983e-16 -8.188748019195517e-17 1
vn -0.8191520442889918 0.573576436351046 1.2278403432480933e-16
vn -2.1372818034864983e-16 8.188748019195517e-17 -1
vn 0.5735764363510462 0.8191520442889919 -1.820770359001747e-17
vn -0.5735764363510462 -0.8191520442889919 1.820770359001747e-17
usemtl tequila
f 107/264/66 108/263/66 106/262/66 105/261/66
f 112/268/67 107/267/67 105/266/67 110/265/67
f 111/272/68 112/271/68 110/270/68 109/269/68
f 110/276/69 105/275/69 106/274/69 109/273/69
f 111/280/70 108/279/70 107/278/70 112/277/70
o bb_main
v 0.9148940150598461 0.8870104621532209 0.15518850641263143
v 0.9148940150598461 0.8870104621532209 0.15518850641263143
v 0.5883884394378693 -3.7102500088925794e-7 0.4816940820346083
v 0.5883884394378693 -3.7102500088925794e-7 0.4816940820346083
v 0.7823114935873685 0.8870104621532209 0.02260598494015381
v 0.7823114935873685 0.8870104621532209 0.02260598494015381
v 0.4558059179653917 -3.7102500088925794e-7 0.34911156056213066
v 0.4558059179653917 -3.7102500088925794e-7 0.34911156056213066
vt 1.0625 0.9375
vt 1.0625 0.9375
vt 1.0625 -0.0625
vt 1.0625 -0.0625
vt 0.25 1
vt 0.4375 1
vt 0.4375 0
vt 0.25 0
vt 0.3125 -0.0625
vt 0.3125 -0.0625
vt 0.3125 -1.0625
vt 0.3125 -1.0625
vt 0.5625 -0.0625
vt 0.375 -0.0625
vt 0.375 -0.0625
vt 0.5625 -0.0625
vt 0.8125 -0.0625
vt 0.625 -0.0625
vt 0.625 -0.0625
vt 0.8125 -0.0625
vn 0.7071067811865476 0 0.7071067811865476
vn -0.62721137512625 0.46174861323503386 0.62721137512625
vn -0.7071067811865476 0 -0.7071067811865476
vn 0.32650557562197685 0.8870108331782218 -0.3265055756219769
vn -0.32650557562197685 -0.8870108331782218 0.3265055756219769
usemtl tequila
f 115/284/71 116/283/71 114/282/71 113/281/71
f 120/288/72 115/287/72 113/286/72 118/285/72
f 119/292/73 120/291/73 118/290/73 117/289/73
f 118/296/74 113/295/74 114/294/74 117/293/74
f 119/300/75 116/299/75 115/298/75 120/297/75
o bb_main
v 0.7164396139381028 0.9762960071199334 0.53125
v 0.7164396139381028 0.9762960071199334 0.53125
v 0.5 -3.903127820947816e-18 0.53125
v 0.5 -3.903127820947816e-18 0.53125
v 0.7164396139381028 0.9762960071199334 0.34375
v 0.7164396139381028 0.9762960071199334 0.34375
v 0.5 3.903127820947816e-18 0.34375
v 0.5 3.903127820947816e-18 0.34375
vt 1 1
vt 1 1
vt 1 0
vt 1 0
vt 0 1
vt 0.1875 1
vt 0.1875 0
vt 0 0
vt 0 -0.0625
vt 0 -0.0625
vt 0 -1.0625
vt 0 -1.0625
vt 1.25 1
vt 1.0625 1
vt 1.0625 1
vt 1.25 1
vt 0.25 -0.0625
vt 0.0625 -0.0625
vt 0.0625 -0.0625
vt 0.25 -0.0625
vn 2.167812611908312e-16 -4.805924856701236e-17 1
vn -0.9762960071199335 0.21643961393810288 2.2579237029714604e-16
vn -2.167812611908312e-16 4.805924856701236e-17 -1
vn 0.2164396139381029 0.9762960071199334 -7.412762093731516e-18
vn -0.2164396139381029 -0.9762960071199334 7.412762093731516e-18
usemtl tequila
f 123/304/76 124/303/76 122/302/76 121/301/76
f 128/308/77 123/307/77 121/306/77 126/305/77
f 127/312/78 128/311/78 126/310/78 125/309/78
f 126/316/79 121/315/79 122/314/79 125/313/79
f 127/320/80 124/319/80 123/318/80 128/317/80
o bb_main_outline
v 0.4116115605621306 -3.7102500088925794e-7 0.4816940820346083
v 0.4116115605621306 -3.7102500088925794e-7 0.4816940820346083
v 0.08510598494015381 0.8870104621532209 0.15518850641263143
v 0.08510598494015381 0.8870104621532209 0.15518850641263143
v 0.5441940820346083 -3.7102500088925794e-7 0.34911156056213066
v 0.5441940820346083 -3.7102500088925794e-7 0.34911156056213066
v 0.21768850641263143 0.8870104621532209 0.02260598494015381
v 0.21768850641263143 0.8870104621532209 0.02260598494015381
vt 0.4375 0
vt 0.25 0
vt 0.25 1
vt 0.4375 1
vt 0.3125 -1.0625
vt 0.3125 -1.0625
vt 0.3125 -0.0625
vt 0.3125 -0.0625
vt 1.0625 -0.0625
vt 1.0625 -0.0625
vt 1.0625 0.9375
vt 1.0625 0.9375
vt 0.625 -0.0625
vt 0.8125 -0.0625
vt 0.8125 -0.0625
vt 0.625 -0.0625
vt 0.375 -0.0625
vt 0.5625 -0.0625
vt 0.5625 -0.0625
vt 0.375 -0.0625
vn -0.62721137512625 -0.46174861323503386 -0.62721137512625
vn 0.7071067811865476 0 -0.7071067811865476
vn -0.7071067811865476 0 0.7071067811865476
vn -0.32650557562197685 0.8870108331782218 -0.3265055756219769
vn 0.32650557562197685 -0.8870108331782218 0.3265055756219769
usemtl tequila
f 132/324/81 135/323/81 133/322/81 130/321/81
f 131/328/82 132/327/82 130/326/82 129/325/82
f 135/332/83 136/331/83 134/330/83 133/329/83
f 134/336/84 129/335/84 130/334/84 133/333/84
f 135/340/85 132/339/85 131/338/85 136/337/85
o bb_main_outline
v 0.40625 0 0.4375
v 0.40625 0 0.4375
v 0.40625 0.9762960071199334 0.22106038606189712
v 0.40625 0.9762960071199334 0.22106038606189712
v 0.59375 0 0.4375
v 0.59375 0 0.4375
v 0.59375 0.9762960071199334 0.22106038606189712
v 0.59375 0.9762960071199334 0.22106038606189712
vt 0.1875 0
vt 0 0
vt 0 1
vt 0.1875 1
vt 0 -1.0625
vt 0 -1.0625
vt 0 -0.0625
vt 0 -0.0625
vt 1 0
vt 1 0
vt 1 1
vt 1 1
vt 0.0625 -0.0625
vt 0.25 -0.0625
vt 0.25 -0.0625
vt 0.0625 -0.0625
vt 1.0625 1
vt 1.25 1
vt 1.25 1
vt 1.0625 1
vn 0 -0.21643961393810288 -0.9762960071199334
vn 1 0 0
vn -1 0 0
vn 0 0.9762960071199334 -0.21643961393810288
vn 0 -0.9762960071199334 0.21643961393810288
usemtl tequila
f 140/344/86 143/343/86 141/342/86 138/341/86
f 139/348/87 140/347/87 138/346/87 137/345/87
f 143/352/88 144/351/88 142/350/88 141/349/88
f 142/356/89 137/355/89 138/354/89 141/353/89
f 143/360/90 140/359/90 139/358/90 144/357/90
o bb_main_outline
v 0.40625 2.557328950061888e-7 0.37499997690990244
v 0.40625 2.557328950061888e-7 0.37499997690990244
v 0.40625 0.8191523000218869 -0.19857645944114366
v 0.40625 0.8191523000218869 -0.19857645944114366
v 0.59375 2.557328950061888e-7 0.37499997690990244
v 0.59375 2.557328950061888e-7 0.37499997690990244
v 0.59375 0.8191523000218869 -0.19857645944114366
v 0.59375 0.8191523000218869 -0.19857645944114366
vt 0.6875 0
vt 0.5 0
vt 0.5 1
vt 0.6875 1
vt 0.9375 -1.0625
vt 0.9375 -1.0625
vt 0.9375 -0.0625
vt 0.9375 -0.0625
vt 0.875 -1.0625
vt 0.875 -1.0625
vt 0.875 -0.0625
vt 0.875 -0.0625
vt 1.125 0.9375
vt 1.3125 0.9375
vt 1.3125 0.9375
vt 1.125 0.9375
vt 0.0625 -0.125
vt 0.25 -0.125
vt 0.25 -0.125
vt 0.0625 -0.125
vn 0 -0.573576436351046 -0.8191520442889918
vn 1 0 0
vn -1 0 0
vn 0 0.8191520442889918 -0.573576436351046
vn 0 -0.8191520442889918 0.573576436351046
usemtl tequila
f 148/364/91 151/363/91 149/362/91 146/361/91
f 147/368/92 148/367/92 146/366/92 145/365/92
f 151/372/93 152/371/93 150/370/93 149/369/93
f 150/376/94 145/375/94 146/374/94 149/373/94
f 151/380/95 148/379/95 147/378/95 152/377/95
o bb_main_outline
v 0.36741748926376117 -3.469446951953614e-17 0.43750001073623884
v 0.36741748926376117 -3.469446951953614e-17 0.43750001073623884
v -0.13258251073623872 0.7071067811865475 -0.06249998926376105
v -0.13258251073623872 0.7071067811865475 -0.06249998926376105
v 0.5000000107362388 -4.85722573273506e-17 0.30491748926376117
v 0.5000000107362388 -4.85722573273506e-17 0.30491748926376117
v 1.0736238842401491e-8 0.7071067811865475 -0.1950825107362386
v 1.0736238842401491e-8 0.7071067811865475 -0.1950825107362386
vt 0.9375 0
vt 0.75 0
vt 0.75 1
vt 0.9375 1
vt 1.125 -0.125
vt 1.125 -0.125
vt 1.125 0.875
vt 1.125 0.875
vt 1 -1.0625
vt 1 -1.0625
vt 1 -0.0625
vt 1 -0.0625
vt 0.625 -0.125
vt 0.8125 -0.125
vt 0.8125 -0.125
vt 0.625 -0.125
vt 0.375 -0.125
vt 0.5625 -0.125
vt 0.5625 -0.125
vt 0.375 -0.125
vn -0.5 -0.7071067811865476 -0.5
vn 0.7071067811865475 0 -0.7071067811865476
vn -0.7071067811865475 0 0.7071067811865476
vn -0.5000000000000001 0.7071067811865476 -0.5000000000000001
vn 0.5000000000000001 -0.7071067811865476 0.5000000000000001
usemtl tequila
f 156/384/96 159/383/96 157/382/96 154/381/96
f 155/388/97 156/387/97 154/386/97 153/385/97
f 159/392/98 160/391/98 158/390/98 157/389/98
f 158/396/99 153/395/99 154/394/99 157/393/99
f 159/400/100 156/399/100 155/398/100 160/397/100
o bb_main_outline
v 0.5 -3.903127820947816e-18 0.53125
v 0.5 -3.903127820947816e-18 0.53125
v 0.28356038606189715 0.9762960071199334 0.53125
v 0.28356038606189715 0.9762960071199334 0.53125
v 0.5 3.903127820947816e-18 0.34375
v 0.5 3.903127820947816e-18 0.34375
v 0.28356038606189715 0.9762960071199334 0.34375
v 0.28356038606189715 0.9762960071199334 0.34375
vt 0.1875 0
vt 0 0
vt 0 1
vt 0.1875 1
vt 0 -1.0625
vt 0 -1.0625
vt 0 -0.0625
vt 0 -0.0625
vt 1 0
vt 1 0
vt 1 1
vt 1 1
vt 0.0625 -0.0625
vt 0.25 -0.0625
vt 0.25 -0.0625
vt 0.0625 -0.0625
vt 1.0625 1
vt 1.25 1
vt 1.25 1
vt 1.0625 1
vn -0.9762960071199335 -0.21643961393810288 -2.2579237029714604e-16
vn 2.167812611908312e-16 4.805924856701236e-17 -1
vn -2.167812611908312e-16 -4.805924856701236e-17 1
vn -0.2164396139381029 0.9762960071199334 -7.412762093731516e-18
vn 0.2164396139381029 -0.9762960071199334 7.412762093731516e-18
usemtl tequila
f 164/404/101 167/403/101 165/402/101 162/401/101
f 163/408/102 164/407/102 162/406/102 161/405/102
f 167/412/103 168/411/103 166/410/103 165/409/103
f 166/416/104 161/415/104 162/414/104 165/413/104
f 167/420/105 164/419/105 163/418/105 168/417/105
o bb_main_outline
v 0.5441940820346083 -3.7102500089619683e-7 0.5258884394378693
v 0.5441940820346083 -3.7102500089619683e-7 0.5258884394378693
v 0.2176885064126315 0.8870104621532209 0.8523940150598462
v 0.2176885064126315 0.8870104621532209 0.8523940150598462
v 0.41161156056213066 -3.710250008788496e-7 0.3933059179653917
v 0.41161156056213066 -3.710250008788496e-7 0.3933059179653917
v 0.08510598494015387 0.8870104621532209 0.7198114935873686
v 0.08510598494015387 0.8870104621532209 0.7198114935873686
vt 0.4375 0
vt 0.25 0
vt 0.25 1
vt 0.4375 1
vt 0.3125 -1.0625
vt 0.3125 -1.0625
vt 0.3125 -0.0625
vt 0.3125 -0.0625
vt 1.0625 -0.0625
vt 1.0625 -0.0625
vt 1.0625 0.9375
vt 1.0625 0.9375
vt 0.625 -0.0625
vt 0.8125 -0.0625
vt 0.8125 -0.0625
vt 0.625 -0.0625
vt 0.375 -0.0625
vt 0.5625 -0.0625
vt 0.5625 -0.0625
vt 0.375 -0.0625
vn -0.6272113751262501 -0.4617486132350339 0.6272113751262501
vn -0.7071067811865476 5.551115123125783e-17 -0.7071067811865475
vn 0.7071067811865476 -5.551115123125783e-17 0.7071067811865475
vn -0.3265055756219768 0.8870108331782218 0.3265055756219769
vn 0.3265055756219768 -0.8870108331782218 -0.3265055756219769
usemtl tequila
f 172/424/106 175/423/106 173/422/106 170/421/106
f 171/428/107 172/427/107 170/426/107 169/425/107
f 175/432/108 176/431/108 174/430/108 173/429/108
f 174/436/109 169/435/109 170/434/109 173/433/109
f 175/440/110 172/439/110 171/438/110 176/437/110
o bb_main_outline
v 0.43749997690990244 2.5573289500271934e-7 0.53125
v 0.43749997690990244 2.5573289500271934e-7 0.53125
v -0.13607645944114366 0.8191523000218869 0.5312499999999999
v -0.13607645944114366 0.8191523000218869 0.5312499999999999
v 0.43749997690990244 2.5573289500965823e-7 0.34375
v 0.43749997690990244 2.5573289500965823e-7 0.34375
v -0.13607645944114366 0.8191523000218869 0.34374999999999994
v -0.13607645944114366 0.8191523000218869 0.34374999999999994
vt 0.6875 0
vt 0.5 0
vt 0.5 1
vt 0.6875 1
vt 0.9375 -1.0625
vt 0.9375 -1.0625
vt 0.9375 -0.0625
vt 0.9375 -0.0625
vt 0.875 -1.0625
vt 0.875 -1.0625
vt 0.875 -0.0625
vt 0.875 -0.0625
vt 1.125 0.9375
vt 1.3125 0.9375
vt 1.3125 0.9375
vt 1.125 0.9375
vt 0.0625 -0.125
vt 0.25 -0.125
vt 0.25 -0.125
vt 0.0625 -0.125
vn -0.8191520442889918 -0.573576436351046 -1.2278403432480933e-16
vn 2.1372818034864983e-16 8.188748019195517e-17 -1
vn -2.1372818034864983e-16 -8.188748019195517e-17 1
vn -0.5735764363510462 0.8191520442889919 -1.820770359001747e-17
vn 0.5735764363510462 -0.8191520442889919 1.820770359001747e-17
usemtl tequila
f 180/444/111 183/443/111 181/442/111 178/441/111
f 179/448/112 180/447/112 178/446/112 177/445/112
f 183/452/113 184/451/113 182/450/113 181/449/113
f 182/456/114 177/455/114 178/454/114 181/453/114
f 183/460/115 180/459/115 179/458/115 184/457/115
o bb_main_outline
v 0.5000000107362388 -6.245004513516506e-17 0.5700825107362388
v 0.5000000107362388 -6.245004513516506e-17 0.5700825107362388
v 1.0736238842401491e-8 0.7071067811865475 1.0700825107362388
v 1.0736238842401491e-8 0.7071067811865475 1.0700825107362388
v 0.36741748926376117 -3.469446951953614e-17 0.43749998926376116
v 0.36741748926376117 -3.469446951953614e-17 0.43749998926376116
v -0.13258251073623872 0.7071067811865475 0.9374999892637612
v -0.13258251073623872 0.7071067811865475 0.9374999892637612
vt 0.9375 0
vt 0.75 0
vt 0.75 1
vt 0.9375 1
vt 1.125 -0.125
vt 1.125 -0.125
vt 1.125 0.875
vt 1.125 0.875
vt 1 -1.0625
vt 1 -1.0625
vt 1 -0.0625
vt 1 -0.0625
vt 0.625 -0.125
vt 0.8125 -0.125
vt 0.8125 -0.125
vt 0.625 -0.125
vt 0.375 -0.125
vt 0.5625 -0.125
vt 0.5625 -0.125
vt 0.375 -0.125
vn -0.5 -0.7071067811865476 0.49999999999999994
vn -0.7071067811865476 0 -0.7071067811865475
vn 0.7071067811865476 0 0.7071067811865475
vn -0.5 0.7071067811865476 0.5000000000000001
vn 0.5 -0.7071067811865476 -0.5000000000000001
usemtl tequila
f 188/464/116 191/463/116 189/462/116 186/461/116
f 187/468/117 188/467/117 186/466/117 185/465/117
f 191/472/118 192/471/118 190/470/118 189/469/118
f 190/476/119 185/475/119 186/474/119 189/473/119
f 191/480/120 188/479/120 187/478/120 192/477/120
o bb_main_outline
v 0.59375 1.1481063742006439e-17 0.4375
v 0.59375 1.1481063742006439e-17 0.4375
v 0.5937499999999999 0.9762960071199333 0.6539396139381032
v 0.5937499999999999 0.9762960071199333 0.6539396139381032
v 0.40624999999999994 -1.1481063742006439e-17 0.4375
v 0.40624999999999994 -1.1481063742006439e-17 0.4375
v 0.40624999999999983 0.9762960071199333 0.6539396139381032
v 0.40624999999999983 0.9762960071199333 0.6539396139381032
vt 0.1875 0
vt 0 0
vt 0 1
vt 0.1875 1
vt 0 -1.0625
vt 0 -1.0625
vt 0 -0.0625
vt 0 -0.0625
vt 1 0
vt 1 0
vt 1 1
vt 1 1
vt 0.0625 -0.0625
vt 0.25 -0.0625
vt 0.25 -0.0625
vt 0.0625 -0.0625
vt 1.0625 1
vt 1.25 1
vt 1.25 1
vt 1.0625 1
vn 2.6506208041798696e-17 -0.21643961393810324 0.9762960071199335
vn -1 -1.2246467991473535e-16 -3.0814879110195767e-33
vn 1 1.2246467991473535e-16 3.0814879110195767e-33
vn -1.1956177801397677e-16 0.9762960071199334 0.21643961393810315
vn 1.1956177801397677e-16 -0.9762960071199334 -0.21643961393810315
usemtl tequila
f 196/484/121 199/483/121 197/482/121 194/481/121
f 195/488/122 196/487/122 194/486/122 193/485/122
f 199/492/123 200/491/123 198/490/123 197/489/123
f 198/496/124 193/495/124 194/494/124 197/493/124
f 199/500/125 196/499/125 195/498/125 200/497/125
o bb_main_outline
v 0.5883884394378693 -3.710250008996663e-7 0.3933059179653917
v 0.5883884394378693 -3.710250008996663e-7 0.3933059179653917
v 0.9148940150598464 0.8870104621532208 0.7198114935873685
v 0.9148940150598464 0.8870104621532208 0.7198114935873685
v 0.4558059179653917 -3.7102500088925794e-7 0.5258884394378693
v 0.4558059179653917 -3.7102500088925794e-7 0.5258884394378693
v 0.7823114935873687 0.8870104621532208 0.8523940150598464
v 0.7823114935873687 0.8870104621532208 0.8523940150598464
vt 0.4375 0
vt 0.25 0
vt 0.25 1
vt 0.4375 1
vt 0.3125 -1.0625
vt 0.3125 -1.0625
vt 0.3125 -0.0625
vt 0.3125 -0.0625
vt 1.0625 -0.0625
vt 1.0625 -0.0625
vt 1.0625 0.9375
vt 1.0625 0.9375
vt 0.625 -0.0625
vt 0.8125 -0.0625
vt 0.8125 -0.0625
vt 0.625 -0.0625
vt 0.375 -0.0625
vt 0.5625 -0.0625
vt 0.5625 -0.0625
vt 0.375 -0.0625
vn 0.62721137512625 -0.461748613235034 0.6272113751262499
vn -0.7071067811865476 1.1102230246251568e-16 0.7071067811865476
vn 0.7071067811865476 -1.1102230246251568e-16 -0.7071067811865476
vn 0.326505575621977 0.8870108331782216 0.3265055756219769
vn -0.326505575621977 -0.8870108331782216 -0.3265055756219769
usemtl tequila
f 204/504/126 207/503/126 205/502/126 202/501/126
f 203/508/127 204/507/127 202/506/127 201/505/127
f 207/512/128 208/511/128 206/510/128 205/509/128
f 206/516/129 201/515/129 202/514/129 205/513/129
f 207/520/130 204/519/130 203/518/130 208/517/130
o bb_main_outline
v 0.59375 2.5573289496802487e-7 0.5000000230900976
v 0.59375 2.5573289496802487e-7 0.5000000230900976
v 0.5937500000000001 0.8191523000218865 1.0735764594411439
v 0.5937500000000001 0.8191523000218865 1.0735764594411439
v 0.40625 2.5573289498884155e-7 0.5000000230900976
v 0.40625 2.5573289498884155e-7 0.5000000230900976
v 0.4062500000000001 0.8191523000218865 1.0735764594411439
v 0.4062500000000001 0.8191523000218865 1.0735764594411439
vt 0.6875 0
vt 0.5 0
vt 0.5 1
vt 0.6875 1
vt 0.9375 -1.0625
vt 0.9375 -1.0625
vt 0.9375 -0.0625
vt 0.9375 -0.0625
vt 0.875 -1.0625
vt 0.875 -1.0625
vt 0.875 -0.0625
vt 0.875 -0.0625
vt 1.125 0.9375
vt 1.3125 0.9375
vt 1.3125 0.9375
vt 1.125 0.9375
vt 0.0625 -0.125
vt 0.25 -0.125
vt 0.25 -0.125
vt 0.0625 -0.125
vn -7.024285468436547e-17 -0.5735764363510464 0.8191520442889915
vn -1 1.2246467991473532e-16 0
vn 1 -1.2246467991473532e-16 0
vn 1.0031719290535247e-16 0.8191520442889916 0.5735764363510465
vn -1.0031719290535247e-16 -0.8191520442889916 -0.5735764363510465
usemtl tequila
f 212/524/131 215/523/131 213/522/131 210/521/131
f 211/528/132 212/527/132 210/526/132 209/525/132
f 215/532/133 216/531/133 214/530/133 213/529/133
f 214/536/134 209/535/134 210/534/134 213/533/134
f 215/540/135 212/539/135 211/538/135 216/537/135
o bb_main_outline
v 0.6325825107362388 -6.938893903907228e-17 0.43749998926376116
v 0.6325825107362388 -6.938893903907228e-17 0.43749998926376116
v 1.1325825107362388 0.7071067811865472 0.9374999892637612
v 1.1325825107362388 0.7071067811865472 0.9374999892637612
v 0.49999998926376116 -5.551115123125783e-17 0.5700825107362388
v 0.49999998926376116 -5.551115123125783e-17 0.5700825107362388
v 0.9999999892637614 0.7071067811865472 1.0700825107362388
v 0.9999999892637614 0.7071067811865472 1.0700825107362388
vt 0.9375 0
vt 0.75 0
vt 0.75 1
vt 0.9375 1
vt 1.125 -0.125
vt 1.125 -0.125
vt 1.125 0.875
vt 1.125 0.875
vt 1 -1.0625
vt 1 -1.0625
vt 1 -0.0625
vt 1 -0.0625
vt 0.625 -0.125
vt 0.8125 -0.125
vt 0.8125 -0.125
vt 0.625 -0.125
vt 0.375 -0.125
vt 0.5625 -0.125
vt 0.5625 -0.125
vt 0.375 -0.125
vn 0.49999999999999994 -0.7071067811865478 0.5
vn -0.7071067811865475 1.6653345369377348e-16 0.7071067811865477
vn 0.7071067811865475 -1.6653345369377348e-16 -0.7071067811865477
vn 0.5000000000000002 0.7071067811865475 0.5000000000000001
vn -0.5000000000000002 -0.7071067811865475 -0.5000000000000001
usemtl tequila
f 220/544/136 223/543/136 221/542/136 218/541/136
f 219/548/137 220/547/137 218/546/137 217/545/137
f 223/552/138 224/551/138 222/550/138 221/549/138
f 222/556/139 217/555/139 218/554/139 221/553/139
f 223/560/140 220/559/140 219/558/140 224/557/140
o bb_main_outline
v 0.49999998926376116 -4.85722573273506e-17 0.30491748926376117
v 0.49999998926376116 -4.85722573273506e-17 0.30491748926376117
v 0.9999999892637612 0.7071067811865475 -0.1950825107362386
v 0.9999999892637612 0.7071067811865475 -0.1950825107362386
v 0.6325825107362388 -3.469446951953614e-17 0.43750001073623884
v 0.6325825107362388 -3.469446951953614e-17 0.43750001073623884
v 1.1325825107362388 0.7071067811865475 -0.06249998926376105
v 1.1325825107362388 0.7071067811865475 -0.06249998926376105
vt 0.9375 0
vt 0.75 0
vt 0.75 1
vt 0.9375 1
vt 1.125 -0.125
vt 1.125 -0.125
vt 1.125 0.875
vt 1.125 0.875
vt 1 -1.0625
vt 1 -1.0625
vt 1 -0.0625
vt 1 -0.0625
vt 0.625 -0.125
vt 0.8125 -0.125
vt 0.8125 -0.125
vt 0.625 -0.125
vt 0.375 -0.125
vt 0.5625 -0.125
vt 0.5625 -0.125
vt 0.375 -0.125
vn 0.5 -0.7071067811865476 -0.5
vn 0.7071067811865475 0 0.7071067811865476
vn -0.7071067811865475 0 -0.7071067811865476
vn 0.5000000000000001 0.7071067811865476 -0.5000000000000001
vn -0.5000000000000001 -0.7071067811865476 0.5000000000000001
usemtl tequila
f 228/564/141 231/563/141 229/562/141 226/561/141
f 227/568/142 228/567/142 226/566/142 225/565/142
f 231/572/143 232/571/143 230/570/143 229/569/143
f 230/576/144 225/575/144 226/574/144 229/573/144
f 231/580/145 228/579/145 227/578/145 232/577/145
o bb_main_outline
v 0.5625000230900975 2.5573289500965823e-7 0.34375
v 0.5625000230900975 2.5573289500965823e-7 0.34375
v 1.1360764594411437 0.8191523000218869 0.34374999999999994
v 1.1360764594411437 0.8191523000218869 0.34374999999999994
v 0.5625000230900976 2.5573289500271934e-7 0.53125
v 0.5625000230900976 2.5573289500271934e-7 0.53125
v 1.1360764594411437 0.8191523000218869 0.5312499999999999
v 1.1360764594411437 0.8191523000218869 0.5312499999999999
vt 0.6875 0
vt 0.5 0
vt 0.5 1
vt 0.6875 1
vt 0.9375 -1.0625
vt 0.9375 -1.0625
vt 0.9375 -0.0625
vt 0.9375 -0.0625
vt 0.875 -1.0625
vt 0.875 -1.0625
vt 0.875 -0.0625
vt 0.875 -0.0625
vt 1.125 0.9375
vt 1.3125 0.9375
vt 1.3125 0.9375
vt 1.125 0.9375
vt 0.0625 -0.125
vt 0.25 -0.125
vt 0.25 -0.125
vt 0.0625 -0.125
vn 0.8191520442889918 -0.573576436351046 -1.2278403432480933e-16
vn 2.1372818034864983e-16 -8.188748019195517e-17 1
vn -2.1372818034864983e-16 8.188748019195517e-17 -1
vn 0.5735764363510462 0.8191520442889919 -1.820770359001747e-17
vn -0.5735764363510462 -0.8191520442889919 1.820770359001747e-17
usemtl tequila
f 236/584/146 239/583/146 237/582/146 234/581/146
f 235/588/147 236/587/147 234/586/147 233/585/147
f 239/592/148 240/591/148 238/590/148 237/589/148
f 238/596/149 233/595/149 234/594/149 237/593/149
f 239/600/150 236/599/150 235/598/150 240/597/150
o bb_main_outline
v 0.4558059179653917 -3.7102500088925794e-7 0.34911156056213066
v 0.4558059179653917 -3.7102500088925794e-7 0.34911156056213066
v 0.7823114935873685 0.8870104621532209 0.02260598494015381
v 0.7823114935873685 0.8870104621532209 0.02260598494015381
v 0.5883884394378693 -3.7102500088925794e-7 0.4816940820346083
v 0.5883884394378693 -3.7102500088925794e-7 0.4816940820346083
v 0.9148940150598461 0.8870104621532209 0.15518850641263143
v 0.9148940150598461 0.8870104621532209 0.15518850641263143
vt 0.4375 0
vt 0.25 0
vt 0.25 1
vt 0.4375 1
vt 0.3125 -1.0625
vt 0.3125 -1.0625
vt 0.3125 -0.0625
vt 0.3125 -0.0625
vt 1.0625 -0.0625
vt 1.0625 -0.0625
vt 1.0625 0.9375
vt 1.0625 0.9375
vt 0.625 -0.0625
vt 0.8125 -0.0625
vt 0.8125 -0.0625
vt 0.625 -0.0625
vt 0.375 -0.0625
vt 0.5625 -0.0625
vt 0.5625 -0.0625
vt 0.375 -0.0625
vn 0.62721137512625 -0.46174861323503386 -0.62721137512625
vn 0.7071067811865476 0 0.7071067811865476
vn -0.7071067811865476 0 -0.7071067811865476
vn 0.32650557562197685 0.8870108331782218 -0.3265055756219769
vn -0.32650557562197685 -0.8870108331782218 0.3265055756219769
usemtl tequila
f 244/604/151 247/603/151 245/602/151 242/601/151
f 243/608/152 244/607/152 242/606/152 241/605/152
f 247/612/153 248/611/153 246/610/153 245/609/153
f 246/616/154 241/615/154 242/614/154 245/613/154
f 247/620/155 244/619/155 243/618/155 248/617/155
o bb_main_outline
v 0.5 3.903127820947816e-18 0.34375
v 0.5 3.903127820947816e-18 0.34375
v 0.7164396139381028 0.9762960071199334 0.34375
v 0.7164396139381028 0.9762960071199334 0.34375
v 0.5 -3.903127820947816e-18 0.53125
v 0.5 -3.903127820947816e-18 0.53125
v 0.7164396139381028 0.9762960071199334 0.53125
v 0.7164396139381028 0.9762960071199334 0.53125
vt 0.1875 0
vt 0 0
vt 0 1
vt 0.1875 1
vt 0 -1.0625
vt 0 -1.0625
vt 0 -0.0625
vt 0 -0.0625
vt 1 0
vt 1 0
vt 1 1
vt 1 1
vt 0.0625 -0.0625
vt 0.25 -0.0625
vt 0.25 -0.0625
vt 0.0625 -0.0625
vt 1.0625 1
vt 1.25 1
vt 1.25 1
vt 1.0625 1
vn 0.9762960071199335 -0.21643961393810288 -2.2579237029714604e-16
vn 2.167812611908312e-16 -4.805924856701236e-17 1
vn -2.167812611908312e-16 4.805924856701236e-17 -1
vn 0.2164396139381029 0.9762960071199334 -7.412762093731516e-18
vn -0.2164396139381029 -0.9762960071199334 7.412762093731516e-18
usemtl tequila
f 252/624/156 255/623/156 253/622/156 250/621/156
f 251/628/157 252/627/157 250/626/157 249/625/157
f 255/632/158 256/631/158 254/630/158 253/629/158
f 254/636/159 249/635/159 250/634/159 253/633/159
f 255/640/160 252/639/160 251/638/160 256/637/160