# Made in Blockbench 5.1.4
mtllib wildfield_corn.mtl

o bb_main
v 0.625 0.0625 0.625
v 0.625 0.0625 0.375
v 0.625 0 0.625
v 0.625 0 0.375
v 0.375 0.0625 0.375
v 0.375 0.0625 0.625
v 0.375 0 0.375
v 0.375 0 0.625
vt 0.75 0.25
vt 0.875 0.25
vt 0.875 0.21875
vt 0.75 0.21875
vt 0 0.1875
vt 0.125 0.1875
vt 0.125 0.15625
vt 0 0.15625
vt 0.15625 0.1875
vt 0.28125 0.1875
vt 0.28125 0.15625
vt 0.15625 0.15625
vt 0.75 0.1875
vt 0.875 0.1875
vt 0.875 0.15625
vt 0.75 0.15625
vn 0 0 -1
vn 1 0 0
vn 0 0 1
vn -1 0 0
usemtl wildfield_corn
f 4/4/1 7/3/1 5/2/1 2/1/1
f 3/8/2 4/7/2 2/6/2 1/5/2
f 8/12/3 3/11/3 1/10/3 6/9/3
f 7/16/4 8/15/4 6/14/4 5/13/4
o bb_main
v 0.6875 0.8125 0.6875
v 0.6875 0.8125 0.3125
v 0.6875 0.0625 0.6875
v 0.6875 0.0625 0.3125
v 0.3125 0.8125 0.3125
v 0.3125 0.8125 0.6875
v 0.3125 0.0625 0.3125
v 0.3125 0.0625 0.6875
vt 0 1
vt 0.1875 1
vt 0.1875 0.625
vt 0 0.625
vt 0.21875 1
vt 0.40625 1
vt 0.40625 0.625
vt 0.21875 0.625
vt 0 0.59375
vt 0.1875 0.59375
vt 0.1875 0.21875
vt 0 0.21875
vt 0.21875 0.59375
vt 0.40625 0.59375
vt 0.40625 0.21875
vt 0.21875 0.21875
vt 0.9375 0.8125
vt 0.75 0.8125
vt 0.75 1
vt 0.9375 1
vt 0.9375 0.78125
vt 0.75 0.78125
vt 0.75 0.59375
vt 0.9375 0.59375
vn 0 0 -1
vn 1 0 0
vn 0 0 1
vn -1 0 0
vn 0 1 0
vn 0 -1 0
usemtl wildfield_corn
f 12/20/5 15/19/5 13/18/5 10/17/5
f 11/24/6 12/23/6 10/22/6 9/21/6
f 16/28/7 11/27/7 9/26/7 14/25/7
f 15/32/8 16/31/8 14/30/8 13/29/8
f 14/36/9 9/35/9 10/34/9 13/33/9
f 15/40/10 12/39/10 11/38/10 16/37/10
o bb_main
v 0.30648423406395353 0.8680616820339807 0.30648423366940863
v 0.31074350922923566 0.8223085023185979 0.06074350623295316
v 0.46662036306779336 0.022876589978792376 0.4666203643686621
v 0.47087963823307544 -0.022876589736590427 0.22087963693220666
v 0.06500278179278018 0.7765553221188112 0.06500277619476014
v 0.060743506627498056 0.822308501834194 0.3107435036312156
v 0.22513891079661996 -0.06862976993637714 0.2251389068940136
v 0.22087963563133786 -0.02287659022099433 0.4708796343304691
vt 0.4375 1
vt 0.5625 1
vt 0.5625 0.5625
vt 0.4375 0.5625
vt 0.4375 0.53125
vt 0.5625 0.53125
vt 0.5625 0.09375
vt 0.4375 0.09375
vt 0.59375 1
vt 0.71875 1
vt 0.71875 0.5625
vt 0.59375 0.5625
vt 0.59375 0.53125
vt 0.71875 0.53125
vt 0.71875 0.09375
vt 0.59375 0.09375
vt 0.875 0.4375
vt 0.75 0.4375
vt 0.75 0.5625
vt 0.875 0.5625
vt 0.875 0.40625
vt 0.75 0.40625
vt 0.75 0.28125
vt 0.875 0.28125
vn 0.017037100661128388 -0.18301271886153123 -0.9829629097458219
vn 0.9829629097458219 0.18301272079914682 -0.017037079847227816
vn -0.017037100661128388 0.18301271886153123 0.9829629097458219
vn -0.9829629097458219 -0.18301272079914682 0.017037079847227816
vn -0.1830127188615312 0.9659258194916439 -0.18301272079914685
vn 0.1830127188615312 -0.9659258194916439 0.18301272079914685
usemtl wildfield_corn
f 20/44/11 23/43/11 21/42/11 18/41/11
f 19/48/12 20/47/12 18/46/12 17/45/12
f 24/52/13 19/51/13 17/50/13 22/49/13
f 23/56/14 24/55/14 22/54/14 21/53/14
f 22/60/15 17/59/15 18/58/15 21/57/15
f 23/64/16 20/63/16 19/62/16 24/61/16
o bb_main
v 0.9392564933725019 0.822308501834194 0.3107435036312156
v 0.9349972182072198 0.7765553221188112 0.06500277619476014
v 0.7791203643686622 -0.02287659022099433 0.4708796343304691
v 0.77486108920338 -0.06862976993637714 0.2251389068940136
v 0.6892564907707643 0.8223085023185979 0.06074350623295316
v 0.6935157659360465 0.8680616820339807 0.30648423366940863
v 0.5291203617669246 -0.022876589736590427 0.22087963693220666
v 0.5333796369322067 0.022876589978792376 0.4666203643686621
vt 0.5625 1
vt 0.4375 1
vt 0.4375 0.5625
vt 0.5625 0.5625
vt 0.71875 0.53125
vt 0.59375 0.53125
vt 0.59375 0.09375
vt 0.71875 0.09375
vt 0.71875 1
vt 0.59375 1
vt 0.59375 0.5625
vt 0.71875 0.5625
vt 0.5625 0.53125
vt 0.4375 0.53125
vt 0.4375 0.09375
vt 0.5625 0.09375
vt 0.75 0.4375
vt 0.875 0.4375
vt 0.875 0.5625
vt 0.75 0.5625
vt 0.75 0.40625
vt 0.875 0.40625
vt 0.875 0.28125
vt 0.75 0.28125
vn -0.017037100661128388 -0.18301271886153123 -0.9829629097458219
vn 0.9829629097458219 -0.18301272079914682 0.017037079847227816
vn 0.017037100661128388 0.18301271886153123 0.9829629097458219
vn -0.9829629097458219 0.18301272079914682 -0.017037079847227816
vn 0.1830127188615312 0.9659258194916439 -0.18301272079914685
vn -0.1830127188615312 -0.9659258194916439 0.18301272079914685
usemtl wildfield_corn
f 28/68/17 31/67/17 29/66/17 26/65/17
f 27/72/18 28/71/18 26/70/18 25/69/18
f 32/76/19 27/75/19 25/74/19 30/73/19
f 31/80/20 32/79/20 30/78/20 29/77/20
f 30/84/21 25/83/21 26/82/21 29/81/21
f 31/88/22 28/87/22 27/86/22 32/85/22
o bb_main
v 0.9349972182072198 0.7765553221188112 0.9349972238052399
v 0.9392564933725019 0.822308501834194 0.6892564963687844
v 0.77486108920338 -0.06862976993637714 0.7748610931059864
v 0.7791203643686622 -0.02287659022099433 0.5291203656695309
v 0.6935157659360465 0.8680616820339807 0.6935157663305913
v 0.6892564907707643 0.8223085023185979 0.9392564937670469
v 0.5333796369322067 0.022876589978792376 0.5333796356313378
v 0.5291203617669246 -0.022876589736590427 0.7791203630677933
vt 0.59375 1
vt 0.71875 1
vt 0.71875 0.5625
vt 0.59375 0.5625
vt 0.59375 0.53125
vt 0.71875 0.53125
vt 0.71875 0.09375
vt 0.59375 0.09375
vt 0.4375 1
vt 0.5625 1
vt 0.5625 0.5625
vt 0.4375 0.5625
vt 0.4375 0.53125
vt 0.5625 0.53125
vt 0.5625 0.09375
vt 0.4375 0.09375
vt 0.75 0.5625
vt 0.875 0.5625
vt 0.875 0.4375
vt 0.75 0.4375
vt 0.75 0.28125
vt 0.875 0.28125
vt 0.875 0.40625
vt 0.75 0.40625
vn 0.017037100661128388 0.18301271886153123 -0.9829629097458219
vn 0.9829629097458219 -0.18301272079914682 -0.017037079847227816
vn -0.017037100661128388 -0.18301271886153123 0.9829629097458219
vn -0.9829629097458219 0.18301272079914682 0.017037079847227816
vn 0.1830127188615312 0.9659258194916439 0.18301272079914685
vn -0.1830127188615312 -0.9659258194916439 -0.18301272079914685
usemtl wildfield_corn
f 36/92/23 39/91/23 37/90/23 34/89/23
f 35/96/24 36/95/24 34/94/24 33/93/24
f 40/100/25 35/99/25 33/98/25 38/97/25
f 39/104/26 40/103/26 38/102/26 37/101/26
f 38/108/27 33/107/27 34/106/27 37/105/27
f 39/112/28 36/111/28 35/110/28 40/109/28
o bb_main
v 0.31074350922923566 0.8223085023185979 0.9392564937670469
v 0.30648423406395353 0.8680616820339807 0.6935157663305913
v 0.47087963823307544 -0.022876589736590427 0.7791203630677933
v 0.46662036306779336 0.022876589978792376 0.5333796356313378
v 0.060743506627498056 0.822308501834194 0.6892564963687844
v 0.06500278179278018 0.7765553221188112 0.9349972238052399
v 0.22087963563133786 -0.02287659022099433 0.5291203656695309
v 0.22513891079661996 -0.06862976993637714 0.7748610931059864
vt 0.71875 1
vt 0.59375 1
vt 0.59375 0.5625
vt 0.71875 0.5625
vt 0.5625 0.53125
vt 0.4375 0.53125
vt 0.4375 0.09375
vt 0.5625 0.09375
vt 0.5625 1
vt 0.4375 1
vt 0.4375 0.5625
vt 0.5625 0.5625
vt 0.71875 0.53125
vt 0.59375 0.53125
vt 0.59375 0.09375
vt 0.71875 0.09375
vt 0.875 0.5625
vt 0.75 0.5625
vt 0.75 0.4375
vt 0.875 0.4375
vt 0.875 0.28125
vt 0.75 0.28125
vt 0.75 0.40625
vt 0.875 0.40625
vn -0.017037100661128388 0.18301271886153123 -0.9829629097458219
vn 0.9829629097458219 0.18301272079914682 0.017037079847227816
vn 0.017037100661128388 -0.18301271886153123 0.9829629097458219
vn -0.9829629097458219 -0.18301272079914682 -0.017037079847227816
vn -0.1830127188615312 0.9659258194916439 0.18301272079914685
vn 0.1830127188615312 -0.9659258194916439 -0.18301272079914685
usemtl wildfield_corn
f 44/116/29 47/115/29 45/114/29 42/113/29
f 43/120/30 44/119/30 42/118/30 41/117/30
f 48/124/31 43/123/31 41/122/31 46/121/31
f 47/128/32 48/127/32 46/126/32 45/125/32
f 46/132/33 41/131/33 42/130/33 45/129/33
f 47/136/34 44/135/34 43/134/34 48/133/34
o bb_main_outline
v 0.22513891079661996 -0.06862976993637714 0.2251389068940136
v 0.22087963563133786 -0.02287659022099433 0.4708796343304691
v 0.06500278179278018 0.7765553221188112 0.06500277619476014
v 0.060743506627498056 0.822308501834194 0.3107435036312156
v 0.46662036306779336 0.022876589978792376 0.4666203643686621
v 0.47087963823307544 -0.022876589736590427 0.22087963693220666
v 0.30648423406395353 0.8680616820339807 0.30648423366940863
v 0.31074350922923566 0.8223085023185979 0.06074350623295316
vt 0.71875 0.5625
vt 0.59375 0.5625
vt 0.59375 1
vt 0.71875 1
vt 0.59375 0.09375
vt 0.71875 0.09375
vt 0.71875 0.53125
vt 0.59375 0.53125
vt 0.4375 0.5625
vt 0.5625 0.5625
vt 0.5625 1
vt 0.4375 1
vt 0.5625 0.09375
vt 0.4375 0.09375
vt 0.4375 0.53125
vt 0.5625 0.53125
vt 0.75 0.40625
vt 0.75 0.28125
vt 0.875 0.28125
vt 0.875 0.40625
vt 0.875 0.5625
vt 0.875 0.4375
vt 0.75 0.4375
vt 0.75 0.5625
vn 0.017037100661128388 -0.18301271886153123 -0.9829629097458219
vn 0.9829629097458219 0.18301272079914682 -0.017037079847227816
vn -0.017037100661128388 0.18301271886153123 0.9829629097458219
vn -0.9829629097458219 -0.18301272079914682 0.017037079847227816
vn -0.1830127188615312 0.9659258194916439 -0.18301272079914685
vn 0.1830127188615312 -0.9659258194916439 0.18301272079914685
usemtl wildfield_corn
f 52/140/35 55/139/35 53/138/35 50/137/35
f 51/144/36 52/143/36 50/142/36 49/141/36
f 56/148/37 51/147/37 49/146/37 54/145/37
f 55/152/38 56/151/38 54/150/38 53/149/38
f 54/156/39 49/155/39 50/154/39 53/153/39
f 55/160/40 52/159/40 51/158/40 56/157/40
o bb_main_outline
v 0.5291203617669246 -0.022876589736590427 0.22087963693220666
v 0.5333796369322067 0.022876589978792376 0.4666203643686621
v 0.6892564907707643 0.8223085023185979 0.06074350623295316
v 0.6935157659360465 0.8680616820339807 0.30648423366940863
v 0.7791203643686622 -0.02287659022099433 0.4708796343304691
v 0.77486108920338 -0.06862976993637714 0.2251389068940136
v 0.9392564933725019 0.822308501834194 0.3107435036312156
v 0.9349972182072198 0.7765553221188112 0.06500277619476014
vt 0.59375 0.5625
vt 0.71875 0.5625
vt 0.71875 1
vt 0.59375 1
vt 0.4375 0.09375
vt 0.5625 0.09375
vt 0.5625 0.53125
vt 0.4375 0.53125
vt 0.5625 0.5625
vt 0.4375 0.5625
vt 0.4375 1
vt 0.5625 1
vt 0.71875 0.09375
vt 0.59375 0.09375
vt 0.59375 0.53125
vt 0.71875 0.53125
vt 0.75 0.28125
vt 0.75 0.40625
vt 0.875 0.40625
vt 0.875 0.28125
vt 0.875 0.4375
vt 0.875 0.5625
vt 0.75 0.5625
vt 0.75 0.4375
vn -0.017037100661128388 -0.18301271886153123 -0.9829629097458219
vn 0.9829629097458219 -0.18301272079914682 0.017037079847227816
vn 0.017037100661128388 0.18301271886153123 0.9829629097458219
vn -0.9829629097458219 0.18301272079914682 -0.017037079847227816
vn 0.1830127188615312 0.9659258194916439 -0.18301272079914685
vn -0.1830127188615312 -0.9659258194916439 0.18301272079914685
usemtl wildfield_corn
f 60/164/41 63/163/41 61/162/41 58/161/41
f 59/168/42 60/167/42 58/166/42 57/165/42
f 64/172/43 59/171/43 57/170/43 62/169/43
f 63/176/44 64/175/44 62/174/44 61/173/44
f 62/180/45 57/179/45 58/178/45 61/177/45
f 63/184/46 60/183/46 59/182/46 64/181/46
o bb_main_outline
v 0.5333796369322067 0.022876589978792376 0.5333796356313378
v 0.5291203617669246 -0.022876589736590427 0.7791203630677933
v 0.6935157659360465 0.8680616820339807 0.6935157663305913
v 0.6892564907707643 0.8223085023185979 0.9392564937670469
v 0.77486108920338 -0.06862976993637714 0.7748610931059864
v 0.7791203643686622 -0.02287659022099433 0.5291203656695309
v 0.9349972182072198 0.7765553221188112 0.9349972238052399
v 0.9392564933725019 0.822308501834194 0.6892564963687844
vt 0.4375 0.5625
vt 0.5625 0.5625
vt 0.5625 1
vt 0.4375 1
vt 0.5625 0.09375
vt 0.4375 0.09375
vt 0.4375 0.53125
vt 0.5625 0.53125
vt 0.71875 0.5625
vt 0.59375 0.5625
vt 0.59375 1
vt 0.71875 1
vt 0.59375 0.09375
vt 0.71875 0.09375
vt 0.71875 0.53125
vt 0.59375 0.53125
vt 0.875 0.28125
vt 0.875 0.40625
vt 0.75 0.40625
vt 0.75 0.28125
vt 0.75 0.4375
vt 0.75 0.5625
vt 0.875 0.5625
vt 0.875 0.4375
vn 0.017037100661128388 0.18301271886153123 -0.9829629097458219
vn 0.9829629097458219 -0.18301272079914682 -0.017037079847227816
vn -0.017037100661128388 -0.18301271886153123 0.9829629097458219
vn -0.9829629097458219 0.18301272079914682 0.017037079847227816
vn 0.1830127188615312 0.9659258194916439 0.18301272079914685
vn -0.1830127188615312 -0.9659258194916439 -0.18301272079914685
usemtl wildfield_corn
f 68/188/47 71/187/47 69/186/47 66/185/47
f 67/192/48 68/191/48 66/190/48 65/189/48
f 72/196/49 67/195/49 65/194/49 70/193/49
f 71/200/50 72/199/50 70/198/50 69/197/50
f 70/204/51 65/203/51 66/202/51 69/201/51
f 71/208/52 68/207/52 67/206/52 72/205/52
o bb_main_outline
v 0.22087963563133786 -0.02287659022099433 0.5291203656695309
v 0.22513891079661996 -0.06862976993637714 0.7748610931059864
v 0.060743506627498056 0.822308501834194 0.6892564963687844
v 0.06500278179278018 0.7765553221188112 0.9349972238052399
v 0.47087963823307544 -0.022876589736590427 0.7791203630677933
v 0.46662036306779336 0.022876589978792376 0.5333796356313378
v 0.31074350922923566 0.8223085023185979 0.9392564937670469
v 0.30648423406395353 0.8680616820339807 0.6935157663305913
vt 0.5625 0.5625
vt 0.4375 0.5625
vt 0.4375 1
vt 0.5625 1
vt 0.71875 0.09375
vt 0.59375 0.09375
vt 0.59375 0.53125
vt 0.71875 0.53125
vt 0.59375 0.5625
vt 0.71875 0.5625
vt 0.71875 1
vt 0.59375 1
vt 0.4375 0.09375
vt 0.5625 0.09375
vt 0.5625 0.53125
vt 0.4375 0.53125
vt 0.875 0.40625
vt 0.875 0.28125
vt 0.75 0.28125
vt 0.75 0.40625
vt 0.75 0.5625
vt 0.75 0.4375
vt 0.875 0.4375
vt 0.875 0.5625
vn -0.017037100661128388 0.18301271886153123 -0.9829629097458219
vn 0.9829629097458219 0.18301272079914682 0.017037079847227816
vn 0.017037100661128388 -0.18301271886153123 0.9829629097458219
vn -0.9829629097458219 -0.18301272079914682 -0.017037079847227816
vn -0.1830127188615312 0.9659258194916439 0.18301272079914685
vn 0.1830127188615312 -0.9659258194916439 -0.18301272079914685
usemtl wildfield_corn
f 76/212/53 79/211/53 77/210/53 74/209/53
f 75/216/54 76/215/54 74/214/54 73/213/54
f 80/220/55 75/219/55 73/218/55 78/217/55
f 79/224/56 80/223/56 78/222/56 77/221/56
f 78/228/57 73/227/57 74/226/57 77/225/57
f 79/232/58 76/231/58 75/230/58 80/229/58