# Made in Blockbench 5.1.4
mtllib wildfield_corn_stalk.mtl

o bb_main
v 0.625 1 0.625
v 0.625 1 0.375
v 0.625 0 0.625
v 0.625 0 0.375
v 0.375 1 0.375
v 0.375 1 0.625
v 0.375 0 0.375
v 0.375 0 0.625
vt 0.265625 1
vt 0.328125 1
vt 0.328125 0.75
vt 0.265625 0.75
vt 0.265625 0.734375
vt 0.328125 0.734375
vt 0.328125 0.484375
vt 0.265625 0.484375
vt 0.34375 1
vt 0.40625 1
vt 0.40625 0.75
vt 0.34375 0.75
vt 0.34375 0.734375
vt 0.40625 0.734375
vt 0.40625 0.484375
vt 0.34375 0.484375
vn 0 0 -1
vn 1 0 0
vn 0 0 1
vn -1 0 0
usemtl wildfield_corn_stalk
f 4/4/1 7/3/1 5/2/1 2/1/1
f 3/8/2 4/7/2 2/6/2 1/5/2
f 8/12/3 3/11/3 1/10/3 6/9/3
f 7/16/4 8/15/4 6/14/4 5/13/4
o bb_main
v 0.5 1 1
v 0.5 1 0
v 0.5 0 1
v 0.5 0 0
v 0.5 1 0
v 0.5 1 1
v 0.5 0 0
v 0.5 0 1
vt 0.421875 1
vt 0.421875 1
vt 0.421875 0.75
vt 0.421875 0.75
vt 0 1
vt 0.25 1
vt 0.25 0.75
vt 0 0.75
vt 0.421875 0.734375
vt 0.421875 0.734375
vt 0.421875 0.484375
vt 0.421875 0.484375
vt 0 0.734375
vt 0.25 0.734375
vt 0.25 0.484375
vt 0 0.484375
vt 0.4375 0.75
vt 0.4375 0.75
vt 0.4375 1
vt 0.4375 1
vt 0.4375 0.734375
vt 0.4375 0.734375
vt 0.4375 0.484375
vt 0.4375 0.484375
vn 0 0 -1
vn 1 0 0
vn 0 0 1
vn -1 0 0
vn 0 1 0
vn 0 -1 0
usemtl wildfield_corn_stalk
f 12/20/5 15/19/5 13/18/5 10/17/5
f 11/24/6 12/23/6 10/22/6 9/21/6
f 16/28/7 11/27/7 9/26/7 14/25/7
f 15/32/8 16/31/8 14/30/8 13/29/8
f 14/36/9 9/35/9 10/34/9 13/33/9
f 15/40/10 12/39/10 11/38/10 16/37/10
o bb_main
v 1 1 0.5000000000000001
v 0 1 0.4999999999999999
v 1 0 0.5000000000000001
v 0 0 0.4999999999999999
v 0 1 0.4999999999999999
v 1 1 0.5000000000000001
v 0 0 0.4999999999999999
v 1 0 0.5000000000000001
vt 0.421875 1
vt 0.421875 1
vt 0.421875 0.75
vt 0.421875 0.75
vt 0 1
vt 0.25 1
vt 0.25 0.75
vt 0 0.75
vt 0.421875 0.734375
vt 0.421875 0.734375
vt 0.421875 0.484375
vt 0.421875 0.484375
vt 0 0.734375
vt 0.25 0.734375
vt 0.25 0.484375
vt 0 0.484375
vt 0.4375 0.75
vt 0.4375 0.75
vt 0.4375 1
vt 0.4375 1
vt 0.4375 0.734375
vt 0.4375 0.734375
vt 0.4375 0.484375
vt 0.4375 0.484375
vn -1 0 -2.220446049250313e-16
vn 2.220446049250313e-16 0 -1
vn 1 0 2.220446049250313e-16
vn -2.220446049250313e-16 0 1
vn 0 1 0
vn 0 -1 0
usemtl wildfield_corn_stalk
f 20/44/11 23/43/11 21/42/11 18/41/11
f 19/48/12 20/47/12 18/46/12 17/45/12
f 24/52/13 19/51/13 17/50/13 22/49/13
f 23/56/14 24/55/14 22/54/14 21/53/14
f 22/60/15 17/59/15 18/58/15 21/57/15
f 23/64/16 20/63/16 19/62/16 24/61/16